<?xml version="1.0" encoding="utf-8"?>
<!-- Generator: Adobe Illustrator 25.4.1, SVG Export Plug-In . SVG Version: 6.00 Build 0)  -->
<svg version="1.1" id="Layer_1" xmlns="http://www.w3.org/2000/svg" xmlns:xlink="http://www.w3.org/1999/xlink" x="0px" y="0px"
	 viewBox="0 0 31.5 18" enable-background="new 0 0 31.5 18" xml:space="preserve">
<g>
	<g>
		<defs>
			<rect id="SVGID_1_" x="0" y="0" width="31.5" height="18"/>
		</defs>
		<clipPath id="SVGID_00000044867499897148248550000005863878538376958851_">
			<use xlink:href="#SVGID_1_"  overflow="visible"/>
		</clipPath>
		<polygon clip-path="url(#SVGID_00000044867499897148248550000005863878538376958851_)" fill="#F2F2F3" points="31.5,18 0,18 0,0 
			31.5,0 31.5,18 		"/>
		<polygon clip-path="url(#SVGID_00000044867499897148248550000005863878538376958851_)" fill="#253B7B" points="0,0 31.5,0 
			31.5,18 0,18 0,0 		"/>
		<polygon clip-path="url(#SVGID_00000044867499897148248550000005863878538376958851_)" fill="#FFFFFF" points="6.56,2.74 1.76,0 
			0,0 5.25,3 4.08,3 0,0.67 0,1.01 3.49,3 0,3 0,3.6 4.54,3.6 5.13,3.6 6.3,3.6 7.09,3.6 7.09,3.04 7.09,0 6.56,0 6.56,2.74 		"/>
		<polygon clip-path="url(#SVGID_00000044867499897148248550000005863878538376958851_)" fill="#FFFFFF" points="4.54,5.4 0,5.4 
			0,6 3.49,6 0,7.99 0,9 0,9 5.25,6 6.42,6 1.17,9 1.76,9 6.56,6.26 6.56,9 7.09,9 7.09,5.96 7.09,5.62 7.09,5.4 6.3,5.4 4.54,5.4 
					"/>
		<polygon clip-path="url(#SVGID_00000044867499897148248550000005863878538376958851_)" fill="#FFFFFF" points="10.62,5.4 
			9.45,5.4 8.66,5.4 8.66,5.96 8.66,9 9.19,9 9.19,6.26 13.99,9 15.75,9 10.5,6 11.67,6 15.75,8.33 15.75,7.99 12.26,6 15.75,6 
			15.75,5.4 11.21,5.4 10.62,5.4 		"/>
		<polygon clip-path="url(#SVGID_00000044867499897148248550000005863878538376958851_)" fill="#FFFFFF" points="9.33,3 14.58,0 
			13.99,0 9.19,2.74 9.19,0 8.66,0 8.66,3.04 8.66,3.38 8.66,3.6 9.45,3.6 11.21,3.6 15.75,3.6 15.75,3 12.26,3 15.75,1.01 15.75,0 
			10.5,3 9.33,3 		"/>
	</g>
	<polygon fill="#FFFFFF" points="27.8,6.15 26.99,6.15 26.74,5.38 26.49,6.15 25.68,6.15 26.34,6.62 26.09,7.39 26.74,6.92 
		27.4,7.39 27.15,6.62 27.8,6.15 	"/>
	<polygon fill="#FFFFFF" points="22.89,4.48 23.62,3.94 24.36,4.48 24.08,3.61 24.82,3.08 23.91,3.08 23.62,2.21 23.34,3.08 
		22.43,3.08 23.17,3.61 22.89,4.48 	"/>
	<polygon fill="#FFFFFF" points="20.27,7.05 19.99,6.19 19.7,7.05 18.79,7.05 19.53,7.59 19.25,8.46 19.99,7.92 20.72,8.46 
		20.44,7.59 21.18,7.05 20.27,7.05 	"/>
	<g>
		<defs>
			<rect id="SVGID_00000101806192154397899510000018219156614020396697_" x="0" y="0" width="31.5" height="18"/>
		</defs>
		<clipPath id="SVGID_00000023998034998016341160000011828801619702128056_">
			<use xlink:href="#SVGID_00000101806192154397899510000018219156614020396697_"  overflow="visible"/>
		</clipPath>
		<polygon clip-path="url(#SVGID_00000023998034998016341160000011828801619702128056_)" fill="#FFFFFF" points="23.94,12.8 
			23.62,11.84 23.31,12.8 22.3,12.8 23.12,13.39 22.81,14.36 23.62,13.76 24.44,14.36 24.13,13.39 24.95,12.8 23.94,12.8 		"/>
		<polygon clip-path="url(#SVGID_00000023998034998016341160000011828801619702128056_)" fill="#D12028" points="5.25,3 0,0 0,0.67 
			4.08,3 5.25,3 		"/>
		<polygon clip-path="url(#SVGID_00000023998034998016341160000011828801619702128056_)" fill="#D12028" points="10.5,6 15.75,9 
			15.75,8.33 11.67,6 10.5,6 		"/>
		<polygon clip-path="url(#SVGID_00000023998034998016341160000011828801619702128056_)" fill="#D12028" points="9.33,3 10.5,3 
			15.75,0 14.58,0 9.33,3 		"/>
		<polygon clip-path="url(#SVGID_00000023998034998016341160000011828801619702128056_)" fill="#D12028" points="0,9 1.17,9 6.42,6 
			5.25,6 0,9 		"/>
		<polygon clip-path="url(#SVGID_00000023998034998016341160000011828801619702128056_)" fill="#D12028" points="9.45,3.6 8.66,3.6 
			8.66,3.38 8.66,3.04 8.66,0 7.87,0 7.09,0 7.09,3.04 7.09,3.6 6.3,3.6 5.13,3.6 4.54,3.6 0,3.6 0,4.5 0,5.4 4.54,5.4 6.3,5.4 
			7.09,5.4 7.09,5.62 7.09,5.96 7.09,9 7.87,9 8.66,9 8.66,5.96 8.66,5.4 9.45,5.4 10.62,5.4 11.21,5.4 15.75,5.4 15.75,4.5 
			15.75,3.6 11.21,3.6 9.45,3.6 		"/>
	</g>
	<polygon fill="#D12028" points="27.4,6.28 26.9,6.28 26.74,5.8 26.59,6.28 26.09,6.28 26.49,6.57 26.34,7.05 26.74,6.76 
		27.15,7.05 27,6.57 27.4,6.28 	"/>
	<polygon fill="#D12028" points="23.14,4.13 23.62,3.78 24.11,4.13 23.93,3.56 24.41,3.21 23.81,3.21 23.62,2.64 23.44,3.21 
		22.84,3.21 23.32,3.56 23.14,4.13 	"/>
	<polygon fill="#D12028" points="20.17,7.19 19.99,6.61 19.8,7.19 19.2,7.19 19.68,7.54 19.5,8.11 19.99,7.76 20.47,8.11 
		20.29,7.54 20.77,7.19 20.17,7.19 	"/>
	<polygon fill="#D12028" points="23.84,12.93 23.62,12.26 23.41,12.93 22.71,12.93 23.27,13.34 23.06,14.01 23.62,13.6 24.19,14.01 
		23.98,13.34 24.54,12.93 23.84,12.93 	"/>
</g>
</svg>
