<?xml version="1.0" encoding="utf-8"?>
<!-- Generator: Adobe Illustrator 25.4.1, SVG Export Plug-In . SVG Version: 6.00 Build 0)  -->
<svg version="1.1" id="Layer_1" xmlns="http://www.w3.org/2000/svg" xmlns:xlink="http://www.w3.org/1999/xlink" x="0px" y="0px"
	 viewBox="0 0 36 18" enable-background="new 0 0 36 18" xml:space="preserve">
<g>
	<polygon fill="#273476" points="0.03,0.02 35.97,0.02 35.97,17.98 0.03,17.98 0.03,0.02 	"/>
	<polygon fill="#FFFFFF" points="9.02,10.8 9.54,12.41 11.12,11.81 10.18,13.23 11.64,14.09 9.95,14.24 10.19,15.92 9.02,14.69 
		7.85,15.92 8.08,14.24 6.39,14.09 7.85,13.23 6.91,11.81 8.5,12.41 9.02,10.8 	"/>
	<polygon fill="#FFFFFF" points="26.98,13.71 27.23,14.48 27.99,14.19 27.54,14.86 28.24,15.28 27.43,15.35 27.54,16.15 
		26.98,15.56 26.43,16.15 26.54,15.35 25.73,15.28 26.43,14.86 25.98,14.19 26.74,14.48 26.98,13.71 	"/>
	<polygon fill="#FFFFFF" points="22.49,6.59 22.74,7.36 23.5,7.08 23.05,7.75 23.74,8.16 22.94,8.23 23.05,9.03 22.49,8.45 
		21.94,9.03 22.05,8.23 21.24,8.16 21.94,7.75 21.49,7.08 22.24,7.36 22.49,6.59 	"/>
	<polygon fill="#FFFFFF" points="26.98,1.73 27.23,2.5 27.99,2.21 27.54,2.88 28.24,3.3 27.43,3.37 27.54,4.17 26.98,3.58 
		26.43,4.17 26.54,3.37 25.73,3.3 26.43,2.88 25.98,2.21 26.74,2.5 26.98,1.73 	"/>
	<polygon fill="#FFFFFF" points="30.98,5.4 31.22,6.17 31.98,5.88 31.53,6.55 32.23,6.96 31.42,7.03 31.53,7.84 30.98,7.25 
		30.42,7.84 30.53,7.03 29.73,6.96 30.42,6.55 29.97,5.88 30.73,6.17 30.98,5.4 	"/>
	<polygon fill="#FFFFFF" points="28.78,9 28.98,9.48 29.49,9.52 29.1,9.85 29.22,10.35 28.78,10.08 28.34,10.35 28.46,9.85 
		28.07,9.52 28.59,9.48 28.78,9 	"/>
	<polygon fill="#FFFFFF" points="18,0.02 15.99,0.02 10.51,2.76 10.51,0.02 7.52,0.02 7.52,2.76 2.04,0.02 0.03,0.02 0.03,1.02 
		4.01,3.01 0.03,3.01 0.03,6.01 4.01,6.01 0.03,8 0.03,9 2.04,9 7.52,6.26 7.52,9 10.51,9 10.51,6.26 15.99,9 18,9 18,8 14.02,6.01 
		18,6.01 18,3.01 14.02,3.01 18,1.02 18,0.02 	"/>
	<path fill="#ED2224" d="M9.91,0.02h-1.8v3.59H0.03v1.8h8.09V9h1.8V5.41H18v-1.8H9.91V0.02L9.91,0.02z M18,0.02h-1.34l-5.99,3h1.34
		L18,0.02L18,0.02z M6.02,3.01l-5.99-3v0.67l4.65,2.33H6.02L6.02,3.01z M0.03,9h1.34l5.99-2.99H6.02L0.03,9L0.03,9z M12.01,6.01
		L18,9V8.33l-4.65-2.33H12.01L12.01,6.01z"/>
</g>
</svg>
