<?xml version="1.0" encoding="utf-8"?>
<!-- Generator: Adobe Illustrator 25.4.1, SVG Export Plug-In . SVG Version: 6.00 Build 0)  -->
<svg version="1.1" id="Layer_1" xmlns="http://www.w3.org/2000/svg" xmlns:xlink="http://www.w3.org/1999/xlink" x="0px" y="0px"
	 viewBox="0 0 27 18" enable-background="new 0 0 27 18" xml:space="preserve">
<g>
	<g>
		<defs>
			<rect id="SVGID_1_" y="0" width="27" height="18"/>
		</defs>
		<clipPath id="SVGID_00000183247289069991421300000003584583551750587804_">
			<use xlink:href="#SVGID_1_"  overflow="visible"/>
		</clipPath>
		<polygon clip-path="url(#SVGID_00000183247289069991421300000003584583551750587804_)" fill="#E43825" points="27,18 0,18 0,0 
			27,0 27,18 		"/>
	</g>
	<path fill="#FFFFFF" d="M13.07,5.64L13.04,5.3l0.22,0.26l0.32-0.13L13.4,5.72l0.22,0.26L13.29,5.9L13.1,6.2l-0.02-0.34l-0.33-0.08
		L13.07,5.64L13.07,5.64z M11.86,7.35c0.13,0.34,0.36,0.72,0.76,1.06c0.28,0.24,0.54,0.41,0.71,0.5c-0.44-0.39-0.64-0.82-0.73-1.12
		c-0.11-0.35-0.09-0.61-0.09-0.63c0.01-0.64,0.33-1.08,0.34-1.1c0.01-0.02,0.04-0.02,0.06-0.01c0.02,0.01,0.02,0.04,0.01,0.06
		c0,0.01-0.32,0.44-0.33,1.05l0,0c0,0-0.02,0.26,0.09,0.6c0.09,0.28,0.27,0.68,0.67,1.05c-0.26-0.39-0.26-0.85-0.26-0.85
		c0-0.34,0.12-0.64,0.4-0.84c0.13-0.09,0.28-0.15,0.41-0.23c0.13-0.08,0.25-0.19,0.35-0.3c0.32-0.36,0.36-0.89,0.2-1.33
		c-0.06-0.15-0.14-0.29-0.19-0.44c-0.15-0.44,0.17-0.83,0.5-1.08c0,0-1.08-0.14-1.86,0.4c-0.14,0.1-0.27,0.22-0.39,0.34
		c-0.28,0.29-0.81,0.96-0.81,1.96c0,0-0.01,0.13,0.02,0.35C11.74,6.99,11.8,7.18,11.86,7.35L11.86,7.35z"/>
	<path fill="#FFFFFF" d="M10.13,7.82l0.22,0.26l0.32-0.13l-0.18,0.29l0.22,0.26l-0.33-0.08l-0.18,0.29l-0.02-0.34L9.84,8.29
		l0.32-0.13L10.13,7.82L10.13,7.82z M10.51,9.93c0,0,0.13,0.05,0.34,0.08c0.2,0.04,0.39,0.04,0.58,0.03
		c0.36-0.02,0.8-0.13,1.24-0.39c0.31-0.19,0.56-0.39,0.7-0.52c-0.51,0.3-0.98,0.36-1.3,0.35c-0.37-0.01-0.61-0.1-0.63-0.11
		c-0.61-0.21-0.93-0.65-0.94-0.67c-0.01-0.02-0.01-0.05,0.01-0.06c0.02-0.01,0.05-0.01,0.06,0.01c0,0.01,0.32,0.44,0.9,0.64l0,0
		c0,0,0.24,0.1,0.6,0.1c0.3,0.01,0.73-0.05,1.21-0.32c-0.45,0.13-0.89-0.01-0.89-0.01c-0.32-0.1-0.57-0.32-0.67-0.64
		c-0.05-0.15-0.06-0.31-0.1-0.46c-0.04-0.15-0.1-0.3-0.18-0.43c-0.25-0.42-0.74-0.62-1.21-0.6c-0.16,0.01-0.32,0.05-0.48,0.05
		C9.29,7,9.02,6.58,8.89,6.18c0,0-0.47,0.98-0.2,1.89C8.75,8.24,8.82,8.4,8.9,8.55C9.09,8.9,9.57,9.62,10.51,9.93L10.51,9.93z"/>
	<path fill="#FFFFFF" d="M11.88,11.97l-0.18,0.29l-0.02-0.34l-0.33-0.08l0.32-0.13l-0.02-0.34l0.22,0.26l0.32-0.13l-0.18,0.29
		l0.22,0.26L11.88,11.97L11.88,11.97z M13.59,9.17c0.12,0.58,0.04,1.04-0.07,1.34c-0.12,0.35-0.28,0.54-0.3,0.56
		c-0.38,0.51-0.9,0.68-0.92,0.69c-0.02,0.01-0.05-0.01-0.05-0.03c-0.01-0.02,0.01-0.05,0.03-0.05c0.01,0,0.52-0.17,0.88-0.66l0,0
		c0,0,0.17-0.2,0.28-0.54c0.1-0.28,0.18-0.71,0.07-1.25c-0.02,0.47-0.29,0.84-0.29,0.84c-0.2,0.27-0.48,0.45-0.82,0.44
		c-0.16,0-0.31-0.04-0.47-0.05c-0.15-0.01-0.31,0-0.46,0.04c-0.47,0.1-0.82,0.51-0.94,0.96c-0.04,0.15-0.05,0.31-0.1,0.47
		c-0.14,0.45-0.62,0.57-1.04,0.57c0,0,0.79,0.75,1.74,0.77c0.17,0,0.35-0.02,0.52-0.04c0.39-0.07,1.22-0.3,1.81-1.11
		c0,0,0.09-0.1,0.18-0.29c0.1-0.18,0.16-0.36,0.21-0.54c0.09-0.35,0.14-0.8,0.01-1.31C13.79,9.63,13.67,9.34,13.59,9.17L13.59,9.17z
		"/>
	<path fill="#FFFFFF" d="M15.71,11.64l-0.18,0.29l-0.02-0.34l-0.33-0.08l0.32-0.13l-0.02-0.34l0.22,0.26l0.32-0.13l-0.18,0.29
		l0.22,0.26L15.71,11.64L15.71,11.64z M16.24,9.74c-0.14-0.15-0.29-0.27-0.45-0.37c-0.31-0.2-0.72-0.37-1.24-0.41
		c-0.37-0.03-0.68-0.01-0.87,0.01c0.59,0.06,1,0.29,1.25,0.48c0.29,0.22,0.43,0.44,0.44,0.46c0.37,0.52,0.37,1.07,0.37,1.09
		c0,0.02-0.02,0.04-0.04,0.04c-0.02,0-0.04-0.02-0.04-0.04c0-0.01,0-0.54-0.35-1.04l0,0c0,0-0.14-0.22-0.43-0.44
		c-0.24-0.18-0.62-0.39-1.16-0.45c0.44,0.16,0.71,0.53,0.71,0.53c0.2,0.27,0.28,0.59,0.17,0.92c-0.05,0.15-0.14,0.28-0.19,0.43
		c-0.05,0.14-0.09,0.3-0.11,0.45c-0.05,0.48,0.23,0.94,0.63,1.19c0.13,0.09,0.28,0.15,0.41,0.24c0.38,0.27,0.35,0.77,0.22,1.17
		c0,0,0.96-0.52,1.27-1.42c0.06-0.16,0.09-0.34,0.12-0.51c0.06-0.39,0.09-1.26-0.5-2.06C16.46,10,16.39,9.89,16.24,9.74L16.24,9.74z
		"/>
	<path fill="#FFFFFF" d="M16.58,7.89L16.4,8.18l-0.02-0.34l-0.33-0.08l0.32-0.13l-0.02-0.34l0.22,0.26l0.32-0.13L16.7,7.71
		l0.22,0.26L16.58,7.89L16.58,7.89z M17.93,6.93c-0.14-0.1-0.29-0.19-0.45-0.27c-0.36-0.18-1.17-0.47-2.12-0.16
		c0,0-0.13,0.03-0.32,0.13c-0.18,0.09-0.34,0.19-0.49,0.31c-0.28,0.23-0.58,0.57-0.78,1.05c-0.15,0.33-0.22,0.64-0.26,0.83
		c0.24-0.54,0.58-0.86,0.84-1.04c0.3-0.21,0.55-0.27,0.57-0.28c0.61-0.19,1.13-0.02,1.15-0.01c0.02,0.01,0.03,0.03,0.03,0.05
		c-0.01,0.02-0.03,0.03-0.05,0.03c-0.01,0-0.52-0.17-1.1,0.01l0,0c0,0-0.25,0.06-0.55,0.27c-0.24,0.17-0.56,0.47-0.79,0.96
		c0.29-0.37,0.73-0.51,0.73-0.51c0.32-0.1,0.65-0.08,0.92,0.12c0.13,0.09,0.23,0.22,0.35,0.31c0.12,0.1,0.26,0.18,0.4,0.24
		c0.44,0.19,0.96,0.07,1.33-0.23c0.12-0.1,0.23-0.22,0.35-0.32c0.37-0.28,0.84-0.1,1.18,0.15C18.88,8.57,18.68,7.5,17.93,6.93
		L17.93,6.93z"/>
</g>
</svg>
