<svg width="242" height="37" viewBox="0 0 242 37" fill="none" xmlns="http://www.w3.org/2000/svg">
<g clip-path="url(#clip0_402_1231)">
<path d="M58.0848 21.4732C57.7154 22.3386 57.1355 23.0964 56.3986 23.6765C55.6617 24.2566 54.7916 24.6403 53.8686 24.7922C52.9456 24.9442 51.9995 24.8594 51.1176 24.5457C50.2358 24.2321 49.4466 23.6997 48.8229 22.9977C47.7128 21.7676 47.0977 20.1649 47.0977 18.5025C47.0977 16.8402 47.7128 15.2375 48.8229 14.0074C49.3456 13.4207 49.9847 12.9512 50.699 12.6292C51.4133 12.3073 52.1867 12.14 52.9692 12.1383C54.0658 12.1102 55.1448 12.4195 56.0625 13.0248C56.9801 13.6302 57.6928 14.5029 58.1055 15.5266L58.1884 15.7146H60.9302L60.8006 15.3022C60.3033 13.611 59.2666 12.132 57.851 11.0939C56.4354 10.0558 54.7197 9.51645 52.9692 9.55925C48.3046 9.55925 44.5107 13.5636 44.5107 18.4869C44.5107 23.4101 48.3046 27.4354 52.9692 27.4354C54.7131 27.4531 56.4162 26.9038 57.8256 25.8691C59.2235 24.8227 60.2618 23.3624 60.7954 21.6925L60.9354 21.28H58.1936L58.0848 21.4732Z" fill="white"/>
<path d="M68.1811 13.9396C67.0253 13.9242 65.9015 14.3219 65.0092 15.0621V8.79712H62.3711V27.1796H65.0092V19.3484C64.9954 18.9628 65.0607 18.5784 65.2009 18.2194C65.3411 17.8603 65.5532 17.5341 65.8241 17.2613C66.095 16.9884 66.4187 16.7747 66.7752 16.6335C67.1317 16.4923 67.5132 16.4265 67.8961 16.4404C68.2673 16.4189 68.6387 16.4803 68.9836 16.6202C69.3286 16.7601 69.6386 16.975 69.8915 17.2496C70.3632 17.8609 70.6022 18.622 70.5653 19.3954V27.1796H73.1567V19.4789C73.1567 16.1272 71.1924 13.9605 68.1552 13.9605" fill="white"/>
<path d="M83.9992 20.8363V22.1258C84.0054 22.5507 83.9034 22.9701 83.7029 23.3439C83.5023 23.7177 83.21 24.0335 82.8538 24.2611C82.0566 24.7361 81.1413 24.9716 80.2157 24.9398C77.93 24.9398 77.6864 23.8226 77.6864 23.3423C77.6864 22.5905 78.0233 21.7029 80.6355 21.5359C81.8016 21.4575 83.0818 21.3322 83.9992 20.8363ZM86.5906 24.8459V18.0588C86.5906 15.4484 84.6315 13.9239 81.3507 13.9239C79.9418 13.8669 78.5536 14.2799 77.4013 15.0986C76.9104 15.4725 76.5082 15.9518 76.224 16.5018C75.9399 17.0517 75.7808 17.6585 75.7584 18.2781V18.6122H78.4535L78.4846 18.3303C78.6867 16.6648 80.366 16.4142 81.3507 16.4142C83.0455 16.4142 84.0199 16.9363 84.0199 17.8186C84.0199 18.4034 83.5845 19.0194 80.3608 19.1708C76.8623 19.3588 75.0898 20.7371 75.0898 23.3475C75.0679 23.959 75.1988 24.5663 75.4704 25.1136C75.7421 25.6609 76.1458 26.1307 76.6446 26.48C77.6858 27.1531 78.9068 27.4883 80.1431 27.4406C81.5759 27.5113 82.9842 27.0465 84.0976 26.1354C84.1489 26.426 84.2377 26.7086 84.362 26.976L84.4449 27.1587H87.1089L86.9379 26.7254C86.7301 26.1167 86.6182 25.479 86.6062 24.8354" fill="white"/>
<path d="M95.2048 13.9397C94.0178 13.9191 92.8649 14.3391 91.9655 15.1196V14.2582H89.374V27.1797H92.0121V19.3485C91.9983 18.9628 92.0636 18.5785 92.2038 18.2194C92.344 17.8603 92.5562 17.5342 92.827 17.2613C93.0979 16.9885 93.4217 16.7748 93.7781 16.6335C94.1346 16.4923 94.5162 16.4266 94.899 16.4405C95.2692 16.4225 95.6389 16.4867 95.9819 16.6283C96.3249 16.7699 96.6328 16.9856 96.884 17.2601C97.3592 17.8661 97.602 18.624 97.5682 19.3954V27.1797H100.16V19.479C100.16 16.1272 98.1953 13.9606 95.1581 13.9606" fill="white"/>
<path d="M108.515 24.9869C108.006 24.9846 107.504 24.8731 107.042 24.6597C106.58 24.4463 106.168 24.136 105.835 23.7495C105.11 22.9197 104.716 21.8479 104.731 20.7423C104.717 19.6243 105.11 18.5398 105.835 17.6934C106.168 17.3066 106.58 16.9961 107.042 16.7827C107.504 16.5693 108.006 16.4579 108.515 16.456C109.024 16.4618 109.526 16.5755 109.988 16.7895C110.451 17.0036 110.863 17.3133 111.199 17.6986C111.946 18.5326 112.355 19.6189 112.345 20.7423C112.353 21.8544 111.944 22.9286 111.199 23.7495C110.863 24.1338 110.45 24.4425 109.988 24.6557C109.525 24.8689 109.023 24.9817 108.515 24.9869ZM112.345 15.5894C111.328 14.5609 109.955 13.9711 108.515 13.9448C104.912 13.9448 102.088 16.9259 102.088 20.7319C102.07 22.4979 102.725 24.2037 103.917 25.4985C104.505 26.1326 105.217 26.6369 106.009 26.9793C106.8 27.3217 107.653 27.4948 108.515 27.4876C109.246 27.4789 109.968 27.3223 110.639 27.0273C111.309 26.7322 111.914 26.3047 112.417 25.77V27.1796H114.983V8.78662H112.345V15.5894Z" fill="white"/>
<path d="M120.264 8.79199H117.626V27.1745H120.264V8.79199Z" fill="white"/>
<path d="M125.136 19.1188C125.383 18.3554 125.856 17.6866 126.492 17.2022C127.127 16.7178 127.895 16.441 128.691 16.4091C129.484 16.4367 130.249 16.7125 130.878 17.1982C131.508 17.6838 131.972 18.3552 132.205 19.1188H125.136ZM128.691 13.9397C125.136 13.9397 122.244 16.9834 122.244 20.7268C122.227 21.6054 122.385 22.4786 122.708 23.2951C123.03 24.1116 123.512 24.8549 124.123 25.4817C124.735 26.1084 125.464 26.6059 126.269 26.945C127.074 27.2841 127.938 27.458 128.811 27.4564C131.765 27.4564 133.993 25.8902 134.864 23.1388L134.999 22.7263H132.236L132.148 22.9091C131.869 23.5582 131.4 24.1061 130.804 24.4793C130.207 24.8525 129.512 25.0333 128.811 24.9974C127.867 24.9957 126.956 24.6424 126.255 24.0055C125.553 23.3687 125.09 22.5077 124.944 21.5673H135.149V21.2541C135.177 20.2559 135.009 19.262 134.653 18.33C134.297 17.398 133.761 16.5464 133.076 15.8244C132.499 15.2318 131.812 14.7605 131.053 14.4379C130.294 14.1152 129.479 13.9477 128.655 13.9449" fill="white"/>
<path d="M139.565 15.1194V14.258H137V27.1796H139.638V19.7399C139.616 19.3165 139.682 18.8932 139.833 18.4975C139.984 18.1017 140.216 17.7423 140.514 17.4427C140.883 17.1245 141.313 16.8854 141.777 16.74C142.242 16.5946 142.73 16.5459 143.214 16.5969H143.546V13.9865L143.271 13.9552C142.607 13.8709 141.933 13.9302 141.294 14.1292C140.655 14.3281 140.066 14.6622 139.565 15.109" fill="white"/>
<path d="M158.675 23.2953L154.067 9.98218H150.455V27.1691H153.093V14.8532L157.363 27.1691H159.965L164.236 14.8532V27.1691H166.874V9.98218H163.282L158.675 23.2953Z" fill="white"/>
<path d="M177.95 20.8363V22.1258C177.956 22.5507 177.854 22.9701 177.654 23.3439C177.453 23.7177 177.161 24.0335 176.804 24.2611C176.007 24.7361 175.092 24.9716 174.166 24.9398C171.881 24.9398 171.637 23.8226 171.637 23.3423C171.637 22.5905 171.969 21.7029 174.586 21.5359C175.752 21.4575 177.032 21.3322 177.95 20.8363ZM180.541 24.8459V18.0588C180.541 15.4484 178.582 13.9239 175.301 13.9239C173.892 13.8669 172.504 14.2799 171.352 15.0986C170.861 15.4725 170.459 15.9518 170.175 16.5018C169.891 17.0517 169.731 17.6585 169.709 18.2781V18.6122H172.404L172.435 18.3303C172.632 16.6648 174.311 16.4142 175.296 16.4142C176.996 16.4142 177.971 16.9363 177.971 17.8186C177.971 18.4034 177.535 19.0194 174.311 19.1708C170.813 19.3588 169.04 20.7371 169.04 23.3475C169.019 23.959 169.149 24.5663 169.421 25.1136C169.693 25.6609 170.097 26.1307 170.595 26.48C171.638 27.1532 172.861 27.4884 174.099 27.4406C175.532 27.5103 176.94 27.0456 178.054 26.1354C178.105 26.4252 178.192 26.7075 178.313 26.976L178.401 27.1587H181.049L180.878 26.7254C180.67 26.1167 180.559 25.479 180.546 24.8354" fill="white"/>
<path d="M188.849 16.43C189.531 16.4354 190.197 16.6341 190.772 17.0035C191.347 17.3728 191.807 17.8978 192.099 18.5183L192.187 18.6906H194.965L194.83 18.273C194.429 16.9997 193.63 15.8912 192.552 15.1131C191.474 14.3349 190.175 13.9288 188.849 13.9553C185.304 13.9553 182.422 16.9991 182.422 20.7424C182.391 22.4928 183.049 24.1844 184.254 25.4461C185.459 26.7078 187.112 27.4364 188.849 27.472C190.179 27.5041 191.483 27.0976 192.563 26.3145C193.643 25.5313 194.439 24.4144 194.83 23.1335L194.965 22.7211H192.182L192.099 22.8934C191.815 23.5201 191.357 24.0508 190.781 24.4213C190.204 24.7919 189.533 24.9865 188.849 24.9817C186.776 24.9817 185.066 23.0813 185.066 20.7424C185.055 19.6243 185.455 18.5418 186.19 17.7039C186.519 17.3159 186.926 17.0033 187.385 16.7871C187.844 16.571 188.343 16.4564 188.849 16.4509" fill="white"/>
<path d="M199.319 8.79199H196.681V27.1745H199.319V8.79199Z" fill="white"/>
<path d="M204.19 19.1188C204.438 18.3554 204.911 17.6866 205.546 17.2022C206.182 16.7178 206.95 16.441 207.746 16.4091C208.539 16.4367 209.303 16.7125 209.933 17.1982C210.563 17.6838 211.027 18.3552 211.26 19.1188H204.19ZM207.746 13.9397C204.191 13.9397 201.298 16.9834 201.298 20.7268C201.283 21.6054 201.441 22.4785 201.764 23.2947C202.088 24.1109 202.569 24.8539 203.182 25.4802C203.794 26.1064 204.524 26.6033 205.329 26.9418C206.134 27.2802 206.998 27.4534 207.87 27.4512C210.825 27.4512 213.053 25.8849 213.924 23.1336L214.059 22.7211H211.291L211.208 22.9039C210.928 23.553 210.458 24.1006 209.86 24.4737C209.263 24.8468 208.567 25.0276 207.865 24.9922C206.921 24.9895 206.012 24.6363 205.31 24.0002C204.613 23.3633 204.153 22.5044 204.009 21.5673H214.214V21.2541C214.242 20.2559 214.074 19.262 213.718 18.33C213.362 17.398 212.826 16.5464 212.141 15.8244C211.564 15.2318 210.877 14.7605 210.118 14.4379C209.359 14.1152 208.544 13.9477 207.72 13.9449" fill="white"/>
<path d="M225.409 20.7425C225.409 23.0709 223.704 24.9609 221.6 24.9609C219.496 24.9609 217.816 23.0709 217.816 20.7425C217.816 18.414 219.516 16.4301 221.6 16.4301C223.683 16.4301 225.409 18.367 225.409 20.7425ZM221.6 13.9554C220.74 13.9532 219.889 14.1297 219.1 14.4737C218.31 14.8177 217.6 15.322 217.013 15.955C215.807 17.2578 215.143 18.9769 215.158 20.7581C215.141 22.5211 215.807 24.2212 217.013 25.4986C217.605 26.1234 218.317 26.6202 219.105 26.9586C219.894 27.2971 220.743 27.47 221.6 27.4669C222.463 27.4623 223.317 27.2841 224.111 26.9427C224.905 26.6012 225.624 26.1035 226.224 25.4785C226.825 24.8536 227.296 24.1142 227.609 23.3036C227.922 22.493 228.071 21.6276 228.047 20.7581C228.065 18.9782 227.405 17.2591 226.202 15.955C225.613 15.3205 224.9 14.8155 224.108 14.4714C223.316 14.1274 222.462 13.9517 221.6 13.9554Z" fill="white"/>
<path d="M239.362 20.7423C239.369 21.855 238.958 22.9291 238.211 23.7495C237.875 24.1338 237.462 24.4425 237 24.6557C236.537 24.8689 236.035 24.9817 235.527 24.9869C235.019 24.9845 234.518 24.8729 234.057 24.6595C233.595 24.4461 233.185 24.1358 232.852 23.7495C232.125 22.9205 231.73 21.8486 231.743 20.7423C231.729 19.6233 232.123 18.538 232.852 17.6934C233.184 17.3068 233.595 16.9963 234.056 16.7829C234.518 16.5694 235.019 16.458 235.527 16.456C236.036 16.4618 236.538 16.5755 237 16.7895C237.463 17.0036 237.875 17.3133 238.211 17.6986C238.96 18.5321 239.371 19.6183 239.362 20.7423ZM239.362 8.78662V15.5737C238.343 14.5458 236.968 13.9563 235.527 13.9291C231.899 13.9291 229.105 16.9102 229.105 20.7162C229.085 22.4816 229.738 24.1875 230.929 25.4828C231.517 26.117 232.229 26.6212 233.021 26.9636C233.812 27.306 234.665 27.4791 235.527 27.472C236.258 27.4635 236.981 27.3071 237.651 27.012C238.321 26.717 238.926 26.2893 239.429 25.7543V27.1639H242.021V8.78662H239.362Z" fill="white"/>
<path d="M36.7315 18.4974C36.7326 22.1571 35.6561 25.7349 33.6384 28.7783C31.6207 31.8217 28.7524 34.1941 25.3961 35.5953C22.0399 36.9965 18.3465 37.3637 14.783 36.6503C11.2196 35.937 7.94624 34.1752 5.37688 31.5878C2.80752 29.0004 1.05761 25.7035 0.348444 22.1142C-0.360717 18.5249 0.00273305 14.8044 1.39283 11.4232C2.78292 8.04196 5.13722 5.15194 8.15796 3.11861C11.1787 1.08529 14.7302 1.45689e-07 18.3633 0C23.234 -1.95315e-07 27.9052 1.94866 31.3498 5.41744C34.7943 8.88622 36.7302 13.5911 36.7315 18.4974Z" fill="#F15859"/>
<path d="M24.1989 19.479C23.4691 20.3228 22.5683 20.9992 21.5572 21.4627C20.546 21.9263 19.448 22.1661 18.337 22.1661C17.2261 22.1661 16.1281 21.9263 15.1169 21.4627C14.1057 20.9992 13.2049 20.3228 12.4752 19.479H10.5005V27.2737H12.7447V22.7316C14.4072 23.8618 16.3688 24.4623 18.3745 24.4548C20.3802 24.4474 22.3374 23.8324 23.9916 22.6898V27.2737H26.2358V19.479H24.1989Z" fill="white"/>
<path d="M21.3846 14.7801C21.201 15.5321 20.7503 16.1904 20.1177 16.6305C19.4851 17.0707 18.7144 17.2623 17.9512 17.1691C17.188 17.0759 16.485 16.7044 15.9751 16.1248C15.4652 15.5452 15.1837 14.7975 15.1837 14.0231C15.1837 13.2486 15.4652 12.501 15.9751 11.9214C16.485 11.3417 17.188 10.9702 17.9512 10.8771C18.7144 10.7839 19.4851 10.9755 20.1177 11.4156C20.7503 11.8558 21.201 12.514 21.3846 13.2661H23.6651C23.4749 11.9065 22.78 10.6702 21.7205 9.80651C20.661 8.94278 19.3158 8.51589 17.9561 8.61193C16.5964 8.70797 15.3235 9.31979 14.3941 10.324C13.4646 11.3282 12.9478 12.6501 12.9478 14.0231C12.9478 15.3961 13.4646 16.7179 14.3941 17.7222C15.3235 18.7264 16.5964 19.3382 17.9561 19.4342C19.3158 19.5303 20.661 19.1034 21.7205 18.2397C22.78 17.3759 23.4749 16.1396 23.6651 14.7801H21.3846Z" fill="white"/>
</g>
<defs>
<clipPath id="clip0_402_1231">
<rect width="242" height="37" fill="white"/>
</clipPath>
</defs>
</svg>
