<svg width="211" height="32" viewBox="0 0 211 32" fill="none" xmlns="http://www.w3.org/2000/svg">
<path d="M50.6075 18.5731C49.7679 20.4117 48.0949 21.5096 46.1312 21.5096C44.7831 21.5096 43.5076 20.9344 42.5429 19.891C41.5742 18.8456 41.0394 17.4631 41.0394 16.004C41.0394 14.5449 41.5742 13.1624 42.5429 12.117C43.5096 11.0736 44.7831 10.5005 46.1312 10.5005C48.1615 10.5005 49.7921 11.5681 50.6075 13.4309L50.6781 13.5943H53.0676L52.9526 13.2391C52.4803 11.7659 51.6166 10.5287 50.4581 9.66093C49.2553 8.76083 47.7578 8.28252 46.1312 8.28252C42.0666 8.28252 38.7609 11.7457 38.7609 16.004C38.7609 20.2724 42.0666 23.7457 46.1312 23.7457C47.6912 23.7457 49.1544 23.2775 50.3633 22.3895C51.5601 21.5096 52.4561 20.2603 52.9526 18.7709L53.0717 18.4117H50.6822L50.6075 18.5731Z" fill="#282829"/>
<path d="M59.4006 12.0585C58.3552 12.0585 57.3966 12.3976 56.6398 13.0273V7.60244H54.3411V23.4995H56.6398V16.7266C56.6398 15.2715 57.6973 14.2139 59.1524 14.2139C59.8991 14.2139 60.4844 14.4501 60.89 14.9142C61.2755 15.3582 61.4813 15.998 61.4813 16.7669V23.4975H63.7598V16.8275C63.7578 13.9314 62.0484 12.0585 59.4006 12.0585Z" fill="#282829"/>
<path d="M75.4571 21.4935V15.6327C75.4571 13.3946 73.7518 12.0586 70.892 12.0586C69.5015 12.0586 68.3128 12.4097 67.4511 13.0717C66.5792 13.7417 66.0848 14.6923 66.0182 15.8224L66.002 16.111H68.3492L68.3774 15.8709C68.551 14.4279 70.0141 14.2119 70.8719 14.2119C72.3512 14.2119 73.1988 14.6539 73.1988 15.4248C73.1988 15.9294 72.8194 16.4642 70.0121 16.5974C66.9647 16.7589 65.4208 17.9677 65.4208 20.1917C65.4208 21.3461 65.8951 22.2886 66.7911 22.9143C67.5681 23.4571 68.6236 23.7457 69.8406 23.7457C71.2715 23.7457 72.448 23.3562 73.2876 22.6135C73.3381 22.8799 73.4147 23.1262 73.5156 23.3401L73.5883 23.4975H75.8971L75.7477 23.1241C75.5903 22.7326 75.4571 21.9839 75.4571 21.4935ZM73.1988 18.0263V19.1383C73.1806 19.9395 72.8456 20.5591 72.2018 20.9849C71.6287 21.3643 70.8113 21.5722 69.9011 21.5722C67.9132 21.5722 67.6973 20.6095 67.6973 20.1938C67.6973 19.5399 67.9899 18.771 70.2684 18.6297C71.2856 18.5631 72.4016 18.4521 73.1988 18.0263Z" fill="#282829"/>
<path d="M82.9425 12.0586C81.8587 12.0586 80.8779 12.4178 80.1191 13.0797V12.325H77.883V23.4975H80.1816V16.7266C80.1816 15.2715 81.2392 14.214 82.6943 14.214C83.4208 14.214 84.0182 14.4581 84.4238 14.9223C84.8153 15.3704 85.0232 16.0101 85.0232 16.7669V23.4975H87.3017V16.8275C87.3017 13.9314 85.5903 12.0586 82.9425 12.0586Z" fill="#282829"/>
<path d="M97.8769 13.4793C96.9768 12.5893 95.7538 12.0585 94.5389 12.0585C91.4006 12.0585 88.9425 14.6337 88.9425 17.9233C88.9425 19.4934 89.5076 20.9586 90.5328 22.0484C91.5762 23.1564 92.999 23.7659 94.5389 23.7659C95.8063 23.7659 97.0495 23.2109 97.9395 22.2805V23.4975H100.178V7.60041H97.8789V13.4793H97.8769ZM94.5389 21.6125C93.6529 21.6125 92.8254 21.2331 92.2059 20.5449C91.5843 19.8527 91.2412 18.9284 91.2412 17.9435C91.2412 16.9405 91.5843 16.004 92.2059 15.3058C92.8234 14.6135 93.6509 14.2341 94.5368 14.2341C95.4127 14.2341 96.2422 14.6155 96.8759 15.3078C97.5197 16.0121 97.8749 16.9485 97.8749 17.9435C97.8749 18.9203 97.5197 19.8426 96.8759 20.5429C96.2442 21.2331 95.4127 21.6125 94.5389 21.6125Z" fill="#282829"/>
<path d="M104.777 7.60244H102.478V23.4995H104.777V7.60244Z" fill="#282829"/>
<path d="M112.117 12.0586C109.021 12.0586 106.501 14.6902 106.501 17.9233C106.501 21.1887 109.013 23.7457 112.22 23.7457C114.793 23.7457 116.716 22.3835 117.493 20.0081L117.61 19.6509H115.205L115.13 19.8083C114.579 20.9869 113.574 21.6105 112.22 21.6105C111.401 21.6105 110.609 21.3058 109.994 20.7548C109.395 20.218 109.007 19.4955 108.86 18.6479H117.752L117.754 18.3774C117.764 16.5187 117.13 14.8497 115.968 13.6812C114.926 12.6357 113.56 12.0586 112.117 12.0586ZM109.019 16.5369C109.457 15.3239 110.597 14.1938 112.117 14.1938C113.477 14.1938 114.692 15.1403 115.177 16.5369H109.019Z" fill="#282829"/>
<path d="M121.592 13.0797V12.3269H119.354V23.4995H121.653V17.0777C121.653 16.2361 121.909 15.5661 122.416 15.0878C122.971 14.563 123.806 14.3047 124.769 14.3572L125.058 14.3733V12.109L124.817 12.0807C123.619 11.9394 122.424 12.3229 121.592 13.0797Z" fill="#282829"/>
<path d="M138.24 20.1493L134.224 8.6337H131.076V23.4995H133.374V12.8456L137.098 23.4995H139.362L143.084 12.8456V23.4995H145.382V8.6337H142.254L138.24 20.1493Z" fill="#282829"/>
<path d="M157.29 21.4935V15.6327C157.29 13.3946 155.582 12.0586 152.725 12.0586C151.334 12.0586 150.143 12.4097 149.284 13.0717C148.412 13.7417 147.917 14.6923 147.853 15.8224L147.837 16.111H150.184L150.212 15.8709C150.385 14.4279 151.849 14.2119 152.706 14.2119C154.186 14.2119 155.033 14.6539 155.033 15.4248C155.033 15.9294 154.654 16.4642 151.845 16.5974C148.799 16.7589 147.253 17.9677 147.253 20.1917C147.253 21.3461 147.728 22.2886 148.624 22.9143C149.401 23.4571 150.456 23.7457 151.673 23.7457C153.102 23.7457 154.281 23.3562 155.12 22.6135C155.171 22.8799 155.247 23.1262 155.346 23.3401L155.419 23.4975H157.73L157.58 23.1241C157.421 22.7326 157.29 21.9839 157.29 21.4935ZM155.031 18.0263V19.1383C155.013 19.9395 154.678 20.5591 154.034 20.9849C153.461 21.3643 152.644 21.5722 151.734 21.5722C149.746 21.5722 149.53 20.6095 149.53 20.1938C149.53 19.5399 149.822 18.771 152.101 18.6297C153.118 18.5631 154.234 18.4521 155.031 18.0263Z" fill="#282829"/>
<path d="M164.527 14.214C165.736 14.214 166.769 14.8678 167.358 16.0061L167.435 16.1534H169.859L169.738 15.7942C168.963 13.4915 166.967 12.0586 164.527 12.0586C161.441 12.0586 158.93 14.6882 158.93 17.9233C158.93 21.1342 161.441 23.7457 164.527 23.7457C166.987 23.7457 168.985 22.3128 169.738 20.0081L169.855 19.6509H167.433L167.358 19.8022C166.789 20.9385 165.758 21.5903 164.527 21.5903C162.708 21.5903 161.229 19.9455 161.229 17.9213C161.229 16.9304 161.576 15.996 162.208 15.2916C162.834 14.5974 163.657 14.214 164.527 14.214Z" fill="#282829"/>
<path d="M173.651 7.60244H171.352V23.4995H173.651V7.60244Z" fill="#282829"/>
<path d="M180.991 12.0586C177.893 12.0586 175.374 14.6902 175.374 17.9233C175.374 21.1887 177.887 23.7457 181.094 23.7457C183.667 23.7457 185.59 22.3835 186.367 20.0081L186.484 19.6509H184.077L184.004 19.8083C183.453 20.9869 182.448 21.6105 181.094 21.6105C180.274 21.6105 179.483 21.3058 178.866 20.7548C178.268 20.218 177.879 19.4955 177.732 18.6479H186.626L186.628 18.3774C186.638 16.5187 186.004 14.8497 184.842 13.6812C183.8 12.6357 182.434 12.0586 180.991 12.0586ZM177.893 16.5369C178.331 15.3239 179.471 14.1938 180.991 14.1938C182.349 14.1938 183.566 15.1403 184.05 16.5369H177.893Z" fill="#282829"/>
<path d="M193.062 12.0586C191.536 12.0586 190.115 12.6741 189.062 13.7901C188.02 14.8941 187.445 16.3694 187.445 17.9435C187.445 19.4975 188.02 20.9546 189.064 22.0424C190.117 23.1403 191.536 23.7457 193.062 23.7457C196.212 23.7457 198.678 21.1968 198.678 17.9435C198.678 16.3673 198.107 14.8921 197.07 13.7901C196.018 12.6741 194.595 12.0586 193.062 12.0586ZM196.379 17.9435C196.379 19.9556 194.892 21.5924 193.062 21.5924C191.243 21.5924 189.764 19.9556 189.764 17.9435C189.764 15.887 191.243 14.214 193.062 14.214C194.892 14.214 196.379 15.887 196.379 17.9435Z" fill="#282829"/>
<path d="M208.533 13.4793C207.633 12.5893 206.41 12.0585 205.195 12.0585C202.057 12.0585 199.598 14.6337 199.598 17.9233C199.598 19.4934 200.163 20.9586 201.189 22.0484C202.232 23.1564 203.655 23.7659 205.195 23.7659C206.46 23.7659 207.705 23.2109 208.595 22.2805V23.4975H210.834V7.60041H208.533V13.4793ZM208.533 17.9435C208.533 18.9203 208.178 19.8426 207.534 20.5429C206.898 21.2331 206.067 21.6125 205.195 21.6125C204.309 21.6125 203.481 21.2331 202.862 20.5449C202.24 19.8527 201.897 18.9304 201.897 17.9435C201.897 16.9405 202.24 16.004 202.862 15.3058C203.479 14.6135 204.307 14.2341 205.195 14.2341C206.071 14.2341 206.9 14.6155 207.534 15.3098C208.178 16.0141 208.533 16.9506 208.533 17.9435Z" fill="#282829"/>
<path d="M32 16C32 24.8355 24.8375 32 16 32C7.16448 32 0 24.8375 0 16C0 7.16246 7.16246 0 16 0C24.8375 0 32 7.16448 32 16Z" fill="#FA5757"/>
<path d="M21.0817 16.8436C19.8406 18.2705 18.0141 19.1746 15.9738 19.1746C13.9334 19.1746 12.107 18.2705 10.8658 16.8436H9.1443V23.5843H11.1019V19.6569C12.4945 20.5954 14.1695 21.1463 15.9758 21.1463C17.8022 21.1463 19.4955 20.5833 20.8981 19.6246V23.5863H22.8557V16.8456H21.0817V16.8436Z" fill="white"/>
<path d="M18.6297 12.7972C18.335 13.9899 17.2573 14.8799 15.9738 14.8799C14.4642 14.8799 13.2371 13.6509 13.2371 12.1413C13.2371 10.6317 14.4642 9.40265 15.9738 9.40265C17.2573 9.40265 18.335 10.2927 18.6297 11.4854H20.6176C20.2967 9.20689 18.3391 7.44503 15.9738 7.44503C13.3845 7.44503 11.2795 9.54997 11.2795 12.1393C11.2795 14.7286 13.3845 16.8335 15.9738 16.8335C18.3391 16.8335 20.2967 15.0717 20.6176 12.7932H18.6297V12.7972Z" fill="white"/>
</svg>
