<?xml version="1.0" encoding="UTF-8"?>
<svg id="Layer_2" data-name="Layer 2" xmlns="http://www.w3.org/2000/svg" viewBox="0 0 198.21 198.21">
  <defs>
    <style>
      .cls-1 {
        fill: #f15859;
      }
    </style>
  </defs>
  <g id="Layer_1-2" data-name="Layer 1">
    <path class="cls-1" d="M30.29,90.26v-2.54c0-5.58,4.54-10.11,10.11-10.11s10.11,4.54,10.11,10.11v2.54c0,5.58-4.54,10.11-10.11,10.11s-10.11-4.53-10.11-10.11M147.78,90.26v-2.54c0-5.58,4.54-10.11,10.11-10.11s10.11,4.54,10.11,10.11v2.54c0,5.58-4.54,10.11-10.11,10.11s-10.11-4.53-10.11-10.11M103.02,16.98v-7.58l27.35,9.91-27.35,9.91v-12.24ZM96.92.71c-1.03.72-1.65,1.91-1.65,3.17v53.12c-.96-.31-1.98-.5-3.05-.54-3.07-.11-5.97,1-8.18,3.13-2.21,2.13-3.42,4.99-3.42,8.05v1.83c0,15.08-10.86,27.67-25.17,30.36,1.77-2.77,2.8-6.06,2.8-9.58v-2.54c0-9.85-8.01-17.86-17.86-17.86s-17.86,8.01-17.86,17.86v2.54c0,3.76,1.17,7.25,3.16,10.13h-7.17c-10.21,0-18.52,8.31-18.52,18.52v44.06c0,6.73,5.47,12.2,12.2,12.2,2.14,0,3.87-1.73,3.87-3.87s-1.73-3.87-3.87-3.87c-2.46,0-4.45-2-4.45-4.46v-44.06c0-5.94,4.83-10.77,10.77-10.77h31.19c21.31,0,38.65-17.34,38.65-38.65v-1.83c0-.94.37-1.83,1.05-2.48.68-.66,1.58-.99,2.52-.96,1.83.07,3.32,1.69,3.32,3.62v1.66c0,20.6-13.9,38.7-33.81,44.02-1.69.45-2.87,1.99-2.87,3.74v36.43H22.38v-32.91c0-2.14-1.73-3.87-3.87-3.87s-3.87,1.73-3.87,3.87v36.78c0,2.14,1.73,3.87,3.87,3.87h.46v32.92c0,2.14,1.73,3.87,3.87,3.87s3.87-1.73,3.87-3.87v-32.92h27.4v32.92c0,2.14,1.73,3.87,3.87,3.87s3.87-1.73,3.87-3.87v-32.92h.58c2.14,0,3.87-1.73,3.87-3.87v-37.41c12.33-4.05,22.47-12.36,28.94-23.02v40.85c0,2.14,1.73,3.87,3.87,3.87s3.87-1.73,3.87-3.87v-40.85c6.47,10.65,16.61,18.97,28.94,23.02v37.41c0,2.14,1.73,3.87,3.87,3.87h.58v32.92c0,2.14,1.73,3.87,3.87,3.87s3.87-1.73,3.87-3.87v-32.92h27.4v32.92c0,2.14,1.73,3.87,3.87,3.87s3.87-1.73,3.87-3.87v-32.92h.46c2.14,0,3.87-1.73,3.87-3.87v-36.78c0-2.14-1.73-3.87-3.87-3.87s-3.87,1.73-3.87,3.87v32.91h-36.19v-36.43c0-1.75-1.18-3.29-2.87-3.74-19.91-5.31-33.81-23.42-33.81-44.02v-1.66c0-1.93,1.49-3.56,3.32-3.62.95-.03,1.85.31,2.52.96.68.66,1.05,1.54,1.05,2.48v1.83c0,21.31,17.34,38.65,38.65,38.65h31.19c5.94,0,10.77,4.83,10.77,10.77v6.63c0,2.14,1.73,3.87,3.87,3.87s3.87-1.73,3.87-3.87v-6.63c0-10.21-8.31-18.52-18.52-18.52h-7.17c1.99-2.88,3.16-6.37,3.16-10.13v-2.54c0-9.85-8.01-17.86-17.86-17.86s-17.86,8.01-17.86,17.86v2.54c0,3.53,1.03,6.81,2.8,9.58-14.31-2.7-25.17-15.28-25.17-30.36v-1.83c0-3.07-1.21-5.93-3.42-8.06-2.21-2.13-5.11-3.24-8.18-3.13-1.06.04-2.08.23-3.04.54v-19.55l40.04-14.5c1.53-.55,2.55-2.01,2.55-3.64s-1.02-3.09-2.55-3.64L100.4.23c-.43-.16-.87-.23-1.32-.23-.72.01-1.5.25-2.16.71"/>
  </g>
</svg>