<svg xmlns="http://www.w3.org/2000/svg" xmlns:xlink="http://www.w3.org/1999/xlink" width="500" zoomAndPan="magnify" viewBox="0 0 375 374.999991" height="500" preserveAspectRatio="xMidYMid meet" version="1.0"><defs><clipPath id="f0a4ecedf9"><path d="M 37.5 38.625 L 339 38.625 L 339 337.875 L 37.5 337.875 Z M 37.5 38.625 " clip-rule="nonzero"/></clipPath></defs><g clip-path="url(#f0a4ecedf9)"><path fill="#fa5757" d="M 112.152344 95.859375 C 93.828125 104.546875 69.675781 114.4375 42.617188 116.894531 C 39.703125 117.195312 37.546875 119.507812 37.597656 122.21875 C 38.296875 149.378906 38.953125 183.871094 44.121094 199.183594 C 53.210938 227.699219 77.761719 250.945312 107.28125 260.9375 L 107.28125 315.007812 C 107.28125 327.359375 117.421875 337.5 129.773438 337.5 L 316.085938 337.5 C 328.488281 337.5 338.578125 327.410156 338.578125 315.007812 L 338.578125 112.074219 C 338.578125 108.160156 337.222656 104.847656 334.460938 102.085938 L 275.121094 42.742188 C 272.40625 40.03125 269.042969 38.625 265.179688 38.625 L 129.773438 38.625 C 117.371094 38.625 107.28125 48.714844 107.28125 61.167969 L 107.28125 68.597656 C 107.28125 70.152344 108.535156 71.410156 110.09375 71.410156 L 123.246094 71.410156 C 124.804688 71.410156 126.058594 70.152344 126.058594 68.597656 L 126.058594 61.167969 C 126.058594 59.109375 127.765625 57.453125 129.773438 57.453125 L 262.265625 57.453125 L 262.265625 95.105469 C 262.265625 106.050781 271.152344 114.9375 282.097656 114.9375 L 319.800781 114.9375 L 319.800781 315.007812 C 319.800781 317.015625 318.09375 318.722656 316.085938 318.722656 L 129.773438 318.722656 C 127.714844 318.722656 126.058594 317.066406 126.058594 315.007812 L 126.058594 261.1875 C 126.058594 260.132812 125.457031 259.179688 124.550781 258.675781 C 151.261719 247.480469 171.945312 225.84375 180.78125 199.234375 C 187.210938 179.855469 186.859375 149.429688 187.308594 122.21875 C 187.359375 119.507812 185.199219 117.195312 182.289062 116.945312 C 155.128906 114.484375 130.828125 104.546875 112.453125 95.859375 Z M 202.371094 226.847656 L 299.066406 226.847656 C 300.222656 226.847656 301.125 225.890625 301.125 224.738281 L 301.125 216.65625 C 301.125 215.5 300.222656 214.546875 299.066406 214.546875 L 202.371094 214.546875 C 201.214844 214.546875 200.3125 215.5 200.3125 216.65625 L 200.3125 224.738281 C 200.3125 225.890625 201.214844 226.847656 202.371094 226.847656 Z M 209.449219 165.242188 L 299.066406 165.242188 C 300.222656 165.242188 301.125 166.199219 301.125 167.351562 L 301.125 175.484375 C 301.125 176.640625 300.222656 177.59375 299.066406 177.59375 L 209.449219 177.59375 C 208.34375 177.59375 207.390625 176.640625 207.390625 175.484375 L 207.390625 167.351562 C 207.390625 166.199219 208.34375 165.242188 209.449219 165.242188 Z M 210.855469 152.945312 L 299.066406 152.945312 C 300.222656 152.945312 301.125 151.988281 301.125 150.835938 L 301.125 142.75 C 301.125 141.597656 300.222656 140.644531 299.066406 140.644531 L 210.855469 140.644531 C 209.75 140.644531 208.847656 141.597656 208.847656 142.75 L 208.847656 150.835938 C 208.847656 151.988281 209.75 152.945312 210.855469 152.945312 Z M 154.324219 263.796875 L 299.066406 263.796875 C 300.222656 263.796875 301.125 264.75 301.125 265.90625 L 301.125 273.988281 C 301.125 275.144531 300.222656 276.097656 299.066406 276.097656 L 154.324219 276.097656 C 153.21875 276.097656 152.316406 275.144531 152.316406 273.988281 L 152.316406 265.90625 C 152.316406 264.75 153.21875 263.796875 154.324219 263.796875 Z M 185.652344 239.148438 L 299.066406 239.148438 C 300.222656 239.148438 301.125 240.101562 301.125 241.253906 L 301.125 249.390625 C 301.125 250.542969 300.222656 251.496094 299.066406 251.496094 L 185.652344 251.496094 C 184.546875 251.496094 183.59375 250.542969 183.59375 249.390625 L 183.59375 241.253906 C 183.59375 240.101562 184.546875 239.148438 185.652344 239.148438 Z M 208.496094 202.195312 L 299.066406 202.195312 C 300.222656 202.195312 301.125 201.242188 301.125 200.085938 L 301.125 192.003906 C 301.125 190.847656 300.222656 189.894531 299.066406 189.894531 L 208.496094 189.894531 C 207.339844 189.894531 206.4375 190.847656 206.4375 192.003906 L 206.4375 200.085938 C 206.4375 201.242188 207.339844 202.195312 208.496094 202.195312 Z M 96.035156 167.554688 L 106.730469 178.851562 L 131.53125 154.601562 C 133.539062 152.59375 136.851562 152.640625 138.859375 154.652344 L 146.089844 162.082031 C 148.046875 164.089844 148 167.351562 145.988281 169.359375 L 113.65625 200.992188 L 109.890625 204.707031 C 108.886719 205.710938 107.632812 206.210938 106.175781 206.160156 C 104.722656 206.113281 103.515625 205.558594 102.511719 204.503906 L 98.898438 200.640625 L 80.972656 181.609375 C 79.015625 179.550781 79.167969 176.238281 81.222656 174.332031 L 88.707031 167.300781 C 89.757812 166.296875 91.015625 165.847656 92.421875 165.898438 C 93.828125 165.945312 95.03125 166.5 96.035156 167.554688 Z M 112.25 116.945312 C 98.546875 123.421875 80.472656 130.851562 60.289062 132.660156 C 58.128906 132.859375 56.472656 134.617188 56.523438 136.675781 C 57.074219 156.910156 57.578125 182.664062 61.445312 194.113281 C 68.523438 216.402344 88.253906 234.378906 111.648438 241.253906 C 112.503906 241.507812 113.304688 241.457031 114.160156 241.207031 C 137.605469 234.027344 156.132812 216.402344 163.511719 194.164062 C 168.28125 179.703125 168.03125 156.960938 168.382812 136.625 C 168.382812 134.617188 166.773438 132.910156 164.617188 132.710938 C 144.332031 130.851562 126.207031 123.472656 112.453125 116.945312 Z M 112.25 116.945312 " fill-opacity="1" fill-rule="evenodd"/></g></svg>