<?xml version="1.0" encoding="UTF-8"?>
<svg id="Layer_2" data-name="Layer 2" xmlns="http://www.w3.org/2000/svg" viewBox="0 0 300.86 298.7">
  <defs>
    <style>
      .cls-1 {
        fill: #fa5757;
      }
    </style>
  </defs>
  <g id="Layer_1-2" data-name="Layer 1">
    <g>
      <path class="cls-1" d="M184.4,211.81c-5.41-.57-11.12.97-15.45,4.29l6.77,3.89v-51.05c0-2.43-2.06-4.5-4.5-4.5h-49.69c-4,0-5.81,4.87-3.18,7.68.26.28.5.57.76.85.8.88-.28-.47.11.14.34.54.71,1.05,1.03,1.6.16.28.31.56.45.84.07.13.56,1.29.18.32.26.66.49,1.34.67,2.02.08.32.16.63.23.95.03.15.21,1.44.09.37.08.67.12,1.34.12,2.01s.07,1.45-.11,2.07c.27-.92.07-.41.01-.15-.09.46-.17.91-.29,1.37-.14.56-.31,1.11-.51,1.65-.08.22-.16.43-.25.64.43-1.07-.02-.01-.11.17-.25.51-.53,1-.83,1.49-.15.24-.31.48-.47.71-.66.95.37-.37-.22.31-.75.86-1.53,1.65-2.39,2.4s.79-.5-.16.12c-.19.12-.37.26-.56.38-.57.37-1.16.72-1.77,1.02-.31.15-.62.3-.93.44.14-.06.89-.32.12-.07-.55.18-1.09.37-1.65.51-.34.09-.68.16-1.02.23-.05,0-1.18.18-.44.09s-.42.03-.46.03c-.35.03-.7.04-1.06.05-.63.01-1.27-.01-1.9-.07-.37-.03-.98.11.02.02-.25.02-.58-.1-.83-.15-.6-.12-1.19-.27-1.77-.46-.21-.07-.42-.14-.63-.21-.21-.07-.41-.15-.62-.23.57.25.63.27.17.07-.98-.5-1.89-1.02-2.81-1.63-.67-.44.03.06.13.12-.26-.16-.51-.42-.74-.62-.48-.43-.94-.88-1.38-1.36-.14-.16-.29-.32-.43-.48-.25-.3-.88-.67-.1-.1-.34-.25-.68-.99-.9-1.35-.28-.46-.54-.94-.77-1.43-.16-.33-.7-.92-.07-.12-.18-.22-.25-.67-.34-.93-.21-.63-.38-1.27-.52-1.92-.06-.27-.1-.55-.15-.83-.05-.34-.04-.22.04.36-.03-.23-.05-.45-.06-.68-.06-.73-.07-1.46-.03-2.2.01-.27.04-.54.05-.81.06-.53.05-.53-.01,0,.04-.26.09-.52.14-.78.16-.77.36-1.52.62-2.26.08-.24.18-.49.27-.73-.37.97.26-.5.35-.67.33-.62.69-1.22,1.09-1.8.13-.19.66-.86.09-.16.32-.39.66-.77,1-1.14,2.62-2.81.81-7.68-3.18-7.68h-49.69c-2.43,0-4.5,2.06-4.5,4.5v93.92c0,1.53,0,3.05,0,4.58.01,6.21,1.8,12.49,5.37,17.61,4.5,6.46,11.29,11.3,19.05,12.93,2.8.59,5.61.73,8.45.73h19.1c10.15,0,20.31,0,30.46,0s19.8,0,29.7,0h17.63c2.43,0,4.5-2.06,4.5-4.5v-46.04l-6.77,3.89c8.93,6.84,22.44,5.47,29.88-2.94s7.63-20.41.84-29.05c-3.79-4.81-9.28-7.5-15.27-8.26-2.34-.3-4.6,2.28-4.5,4.5.12,2.69,1.99,4.18,4.5,4.5-1.15-.15.22.06.53.13.51.11,1.01.25,1.5.4.22.07.44.14.65.22.14.05.84.3.26.08s.1.05.24.12c.26.12.51.25.76.38.45.24.89.5,1.31.77.19.12.38.25.56.38.12.09.7.53.22.15s.09.08.2.18c.17.15.34.29.51.45.41.38.81.78,1.19,1.2.15.17.3.34.44.51.1.12.53.7.17.21s.06.1.15.23c.13.19.25.37.37.56.27.43.53.87.77,1.32.11.2.2.41.3.61.39.76-.16-.5.02.02.33.92.64,1.84.85,2.8.08.36.48,1.56.12.53.17.48.1,1.26.11,1.76,0,.46,0,.92-.03,1.38-.01.23-.04.45-.05.68-.03.39.14.57.03-.19.12.83-.45,2.12-.71,2.91-.12.34-.35,1.53-.14.45-.08.38-.39.83-.57,1.17-.2.38-.42.76-.65,1.12-.17.28-1.01,1.7-.42.67-.4.7-1.16,1.35-1.74,1.9-.31.3-.64.57-.97.85-.64.54.1-.04.14-.11-.15.22-.57.4-.8.55-.73.47-1.49.87-2.27,1.25s.1,0,.17-.07c-.18.14-.55.21-.77.28-.47.16-.95.3-1.43.42-.26.07-1.51.15-1.64.33.04-.06,1.11-.1.19-.04-.34.03-.68.05-1.03.07-.59.02-1.17.02-1.76-.02-.28-.02-.56-.05-.84-.07-.52-.04.58.15-.25-.05-.67-.16-1.34-.29-2-.5-.26-.08-.51-.17-.77-.26-1.21-.41.72.39-.42-.17-1.21-.6-2.34-1.28-3.41-2.1-2.81-2.15-6.77.8-6.77,3.89v46.04l4.5-4.5h-93.39c-1.65,0-3.31,0-4.96,0-.1,0-.2,0-.3,0-.47,0-.94-.01-1.41-.04s-.92-.07-1.38-.11c-.7-.06.1-.12.17.03-.03-.06-.59-.09-.68-.11-1.78-.3-3.49-.81-5.18-1.43-.77-.28.03.04.15.07-.2-.06-.41-.18-.6-.27-.4-.19-.79-.38-1.18-.59-.78-.41-1.53-.86-2.26-1.34-.37-.24-.72-.5-1.08-.75-.19-.13-.64-.53.13.11-.17-.14-.34-.27-.51-.41-.67-.56-1.31-1.15-1.93-1.77-.58-.58-1.11-1.19-1.64-1.82-.72-.85.34.53-.3-.38-.28-.4-.57-.8-.83-1.22-.44-.69-.86-1.4-1.24-2.13-.18-.34-.35-.69-.51-1.04-.09-.18-.21-.41-.27-.6.34,1.11.03.04-.04-.16-.61-1.63-1.06-3.32-1.34-5.04-.19-1.15.05.67-.06-.51-.04-.4-.07-.81-.09-1.21-.02-.47-.03-.95-.04-1.42,0-.11,0-.22,0-.33,0-.6,0-1.2,0-1.8v-96.51l-4.5,4.5h49.69l-3.18-7.68c-5.16,5.52-7.29,13.05-5.72,20.45,1.27,6.01,5.32,11.39,10.61,14.46,5.61,3.25,12.79,3.99,18.88,1.66s11.21-7.36,13.53-13.77c2.85-7.86.56-16.78-5.05-22.79l-3.18,7.68h49.69l-4.5-4.5v51.05c0,3.09,3.96,6.04,6.77,3.89.82-.63,1.68-1.21,2.6-1.7.23-.12.46-.24.7-.35.37-.19.4-.18,0-.02.55-.22,1.11-.41,1.68-.58.51-.15,1.03-.27,1.55-.37.09-.02.92-.15.4-.08s.32-.02.42-.03c1.19-.09,2.38-.05,3.56.07,2.35.25,4.6-2.25,4.5-4.5-.12-2.65-1.98-4.23-4.5-4.5Z"/>
      <path class="cls-1" d="M171.09,298.7h93.92c1.53,0,3.05,0,4.58,0,6.21-.01,12.49-1.8,17.61-5.37,6.46-4.5,11.3-11.29,12.93-19.05.59-2.8.73-5.61.73-8.45v-96.89c0-2.43-2.06-4.5-4.5-4.5h-46.04l3.89,6.77c4.2-5.48,5.5-13.11,3.49-19.71-1.78-5.83-6.01-11.02-11.55-13.66s-12.23-3.14-18.06-.77-10.35,6.88-12.73,12.77c-2.81,6.96-1.67,15.41,2.89,21.36l3.89-6.77h-51.05c-2.35,0-4.61,2.07-4.5,4.5s1.98,4.5,4.5,4.5h51.05c3.09,0,6.04-3.96,3.89-6.77-.82-1.07-1.5-2.2-2.1-3.41-.56-1.12.12.49-.1-.23-.1-.32-.23-.64-.33-.96-.25-.79-.43-1.59-.57-2.4.03.19.07.85,0-.05-.03-.35-.05-.7-.07-1.06-.02-.56-.02-1.12.02-1.68.02-.3-.01-.73.09-1.02-.3.86-.08.5-.02.19.14-.66.26-1.31.45-1.95.12-.43.26-1.2.53-1.56-.47.63-.23.49-.07.17.15-.29.28-.59.43-.88.25-.48.53-.94.82-1.4.12-.18.25-.35.36-.54.53-.83-.51.57.08-.12.7-.82,1.43-1.6,2.25-2.3.05-.04.89-.67.3-.25s.28-.19.33-.22c.54-.37,1.09-.7,1.66-1.01.19-.1.38-.2.58-.3.06-.03,1.04-.46.36-.18s.32-.11.38-.13c.21-.07.42-.14.62-.21.53-.17,1.06-.31,1.6-.43.27-.06.72-.22.99-.18l-.53.07c.23-.03.45-.05.68-.07,1.02-.08,2.51-.29,3.49.05-.11-.04-1.01-.18-.16-.01.34.07.68.13,1.02.21.56.13,1.11.29,1.66.47.32.11.64.23.96.36-.14-.06-.86-.41-.14-.04.5.26,1.01.51,1.5.8s.93.63,1.41.94c-.78-.5-.3-.24-.11-.08.34.3.68.58,1.01.9.37.35.72.72,1.05,1.1.19.21.36.43.54.64-.63-.72-.22-.3-.09-.1.7,1.05,1.32,2.09,1.84,3.24-.42-.9-.14-.34-.07-.12.14.44.3.86.43,1.31.16.56.26,1.12.39,1.69.26,1.16-.06-1.11.04.27.03.42.06.84.08,1.27.02.83-.02,1.65-.11,2.48.02-.19.16-.85-.02,0-.1.46-.19.91-.31,1.37-.19.7-.42,1.39-.68,2.06.33-.83,0-.03-.11.18-.2.41-.42.81-.65,1.2-.4.67-.84,1.3-1.31,1.92-2.16,2.81.8,6.77,3.89,6.77h46.04l-4.5-4.5v93.39c0,1.65,0,3.31,0,4.96,0,.1,0,.2,0,.3,0,.47-.01.94-.04,1.41s-.07.92-.11,1.38c-.06.7-.12-.1.03-.17-.06.03-.09.59-.11.68-.3,1.78-.81,3.49-1.43,5.18-.28.77.04-.03.07-.15-.06.2-.18.41-.27.6-.19.4-.38.79-.59,1.18-.41.78-.86,1.53-1.34,2.26-.24.37-.5.72-.75,1.08-.13.19-.53.64.11-.13-.14.17-.27.34-.41.51-.56.67-1.15,1.31-1.77,1.93-.58.58-1.19,1.11-1.82,1.64-.85.72.53-.34-.38.3-.4.28-.8.57-1.22.83-.69.44-1.4.86-2.13,1.24-.34.18-.69.35-1.04.51-.18.09-.41.21-.6.27,1.11-.34.04-.03-.16.04-1.63.61-3.32,1.06-5.04,1.34-1.15.19.67-.05-.51.06-.4.04-.81.07-1.21.09-.47.02-.95.03-1.42.04-.11,0-.22,0-.33,0-.6,0-1.2,0-1.8,0h-19.56c-10.08,0-20.16,0-30.24,0s-19.58,0-29.37,0h-17.33c-2.35,0-4.61,2.07-4.5,4.5s1.98,4.5,4.5,4.5h0Z"/>
      <path class="cls-1" d="M300.86,168.94c0-3.98,0-7.95,0-11.93,0-9.24,0-18.47,0-27.71s0-20.85,0-31.27v-23.01c0-1.53,0-3.05,0-4.58-.01-6.21-1.8-12.49-5.37-17.61-4.5-6.46-11.29-11.3-19.05-12.93-2.8-.59-5.61-.73-8.45-.73h-49.56c-9.9,0-19.8,0-29.7,0-5.61,0-11.23,0-16.84,0h-.78c-2.43,0-4.5,2.06-4.5,4.5,0,5.18,0,10.36,0,15.54,0,8.26,0,16.52,0,24.78,0,1.9,0,3.81,0,5.71l6.77-3.89c-5.48-4.2-13.11-5.5-19.71-3.49-5.83,1.78-11.02,6.01-13.66,11.55s-3.14,12.23-.77,18.06,6.88,10.35,12.77,12.73c6.96,2.81,15.41,1.67,21.36-2.89l-6.77-3.89v51.05c0,2.35,2.07,4.61,4.5,4.5s4.5-1.98,4.5-4.5v-51.05c0-3.09-3.96-6.04-6.77-3.89-1.07.82-2.2,1.5-3.41,2.1-1.12.56.49-.12-.23.1-.32.1-.64.23-.96.33-.79.25-1.59.43-2.4.57.19-.03.85-.07-.05,0-.35.03-.7.05-1.06.07-.56.02-1.12.02-1.68-.02-.3-.02-.73.01-1.02-.09.86.3.5.08.19.02-.66-.14-1.31-.26-1.95-.45-.43-.12-1.2-.26-1.56-.53.63.47.49.23.17.07-.29-.15-.59-.28-.88-.43-.48-.25-.94-.53-1.4-.82-.18-.12-.35-.25-.54-.36-.83-.53.57.51-.12-.08-.82-.7-1.6-1.43-2.3-2.25-.04-.05-.67-.89-.25-.3s-.19-.28-.22-.33c-.37-.54-.7-1.09-1.01-1.66-.1-.19-.2-.38-.3-.58-.03-.06-.46-1.04-.18-.36s-.11-.32-.13-.38c-.07-.21-.14-.42-.21-.62-.17-.53-.31-1.06-.43-1.6-.06-.27-.22-.72-.18-.99l.07.53c-.03-.23-.05-.45-.07-.68-.08-1.02-.29-2.51.05-3.49-.04.11-.18,1.01-.01.16.07-.34.13-.68.21-1.02.13-.56.29-1.11.47-1.66.11-.32.23-.64.36-.96-.06.14-.41.86-.04.14.26-.5.51-1.01.8-1.5s.63-.93.94-1.41c-.5.78-.24.3-.08.11.3-.34.58-.68.9-1.01.35-.37.72-.72,1.1-1.05.21-.19.43-.36.64-.54-.72.63-.3.22-.1.09,1.05-.7,2.09-1.32,3.24-1.84-.9.42-.34.14-.12.07.44-.14.86-.3,1.31-.43.56-.16,1.12-.26,1.69-.39,1.16-.26-1.11.06.27-.04.42-.03.84-.06,1.27-.08.83-.02,1.65.02,2.48.11-.19-.02-.85-.16,0,.02.46.1.91.19,1.37.31.7.19,1.39.42,2.06.68-.83-.33-.03,0,.18.11.41.2.81.42,1.2.65.67.4,1.3.84,1.92,1.31,2.81,2.16,6.77-.8,6.77-3.89,0-5.18,0-10.36,0-15.54,0-8.26,0-16.52,0-24.78,0-1.9,0-3.81,0-5.71l-4.5,4.5c3.92,0,7.84,0,11.76,0,9.09,0,18.18,0,27.27,0h54.36c1.65,0,3.31,0,4.96,0,.1,0,.2,0,.3,0,.47,0,.94.01,1.41.04s.92.07,1.38.11c.7.06-.1.12-.17-.03.03.06.59.09.68.11,1.78.3,3.49.81,5.18,1.43.77.28-.03-.04-.15-.07.2.06.41.18.6.27.4.19.79.38,1.18.59.78.41,1.53.86,2.26,1.34.37.24.72.5,1.08.75.19.13.64.53-.13-.11.17.14.34.27.51.41.67.56,1.31,1.15,1.93,1.77.58.58,1.11,1.19,1.64,1.82.72.85-.34-.53.3.38.28.4.57.8.83,1.22.44.69.86,1.4,1.24,2.13.18.34.35.69.51,1.04.09.18.21.41.27.6-.34-1.11-.03-.04.04.16.61,1.63,1.06,3.32,1.34,5.04.19,1.15-.05-.67.06.51.04.4.07.81.09,1.21.02.47.03.95.04,1.42,0,.11,0,.22,0,.33,0,.6,0,1.2,0,1.8v79.18c0,5.52,0,11.03,0,16.55v.78c0,2.35,2.07,4.61,4.5,4.5s4.5-1.98,4.5-4.5h0Z"/>
      <path class="cls-1" d="M73.52,145.97c1.83-4.48,1.95-9.63.46-14.23l-5.54,5.54c5.03,1.78,10.06,3.55,15.08,5.33,8.06,2.85,16.11,5.69,24.17,8.54,1.84.65,3.68,1.3,5.52,1.95,2.41.85,4.77-.98,5.54-3.14,1.73-4.91,3.47-9.82,5.2-14.73,2.76-7.82,5.53-15.65,8.29-23.47.63-1.79,1.27-3.58,1.9-5.37.59-1.68-.29-3.7-1.61-4.73-1.55-1.19-3.28-1.1-5-.35.73-.32-.12.03-.31.09-.34.12-.67.22-1.02.32-.27.08-.55.14-.83.21.06-.01-1.31.25-.67.14s-.74.06-.68.06c-.29.02-.58.03-.86.03-.36,0-.72,0-1.09-.02-.22,0-.44-.03-.65-.05.47.08.43.07-.12-.02-.59-.11-1.17-.24-1.75-.41-.37-.11-.72-.23-1.08-.36-.76-.27.7.37-.33-.13-.49-.24-.97-.48-1.43-.76-.26-.15-.51-.31-.75-.48-.16-.11-1.02-.83-.23-.14-.8-.7-1.53-1.42-2.25-2.21s.33.52-.05-.05c-.16-.24-.34-.47-.49-.72-.32-.49-.61-.99-.87-1.51-.16-.31-.31-.62-.45-.94.06.14.32.88.07.11-.18-.55-.37-1.1-.51-1.67-.1-.39-.34-.97-.28-1.37-.13.91.04.38,0-.02s-.06-.82-.06-1.23c0-.47,0-.95.04-1.42.02-.23.23-1.37,0-.23.05-.24.08-.47.13-.71.12-.57.27-1.14.45-1.7.07-.22.15-.43.22-.65.36-1.07-.43.83.06-.18.44-.9.95-1.73,1.48-2.58.58-.93-.64.7.08-.12.14-.16.28-.33.42-.49.39-.44.81-.86,1.24-1.25.2-.18.4-.35.6-.52.33-.28.18-.4-.16.12.21-.32,1-.68,1.33-.87.36-.22.74-.42,1.12-.61.31-.15.95-.7.08-.07.23-.17.63-.24.89-.33.58-.2,2.17-.9,2.78-.68-.6-.21-.71.06-.08.03.27-.01.53-.04.8-.05.54-.02,1.08-.02,1.62.02.27.02.55.07.81.07.35,0-.9-.2.11.04.6.14,1.2.26,1.79.45.22.07.43.14.65.21.25.09.49.18.73.28-.42-.18-.48-.2-.19-.06.6.35,1.24.63,1.83,1.01.21.14.41.28.62.42.85.57-.42-.43.27.21.54.51,1.09.99,1.58,1.54.16.18.31.38.48.56-.67-.74.07.1.17.26.41.6.78,1.23,1.11,1.88.83,1.59,2.79,2.38,4.48,2.15,1.84-.25,3.13-1.5,3.74-3.22,1.73-4.91,3.47-9.82,5.2-14.73,2.76-7.82,5.53-15.65,8.29-23.47.63-1.79,1.27-3.58,1.9-5.37.85-2.41-.98-4.77-3.14-5.54-3.55-1.25-7.1-2.51-10.65-3.76l-25.08-8.86c-9.7-3.43-19.4-6.85-29.1-10.28-7.69-2.72-15.39-5.43-23.08-8.15l-5.99-2.12c-3.57-1.26-7.18-1.7-10.95-1.15-7.41,1.1-13.28,6.62-15.78,13.52-.43,1.19-.84,2.38-1.26,3.57-2.36,6.68-4.72,13.37-7.08,20.05-3.36,9.52-6.72,19.04-10.09,28.56-3.18,9.01-6.36,18.02-9.55,27.03-1.77,5.02-3.55,10.04-5.32,15.07l-.26.72c-.85,2.41.98,4.77,3.14,5.54,4.53,1.6,9.05,3.2,13.58,4.8,7.27,2.57,14.53,5.13,21.8,7.7,1.67.59,3.33,1.18,5,1.76l-1.07-8.22c-4.64,3.03-8.16,7.67-9.38,13.13-1.09,4.92-.44,9.94,1.79,14.45,4.48,9.06,15.73,13.7,25.3,10.45,5.52-1.88,10.34-5.9,12.7-11.3.94-2.15.7-4.93-1.61-6.16-1.95-1.03-5.15-.69-6.16,1.61-.38.88-.82,1.73-1.35,2.53-.18.27-1.02,1.26-.34.51-.36.39-.68.8-1.05,1.17-.29.29-.58.57-.89.84-.18.15-.36.3-.53.45.71-.61.26-.2.08-.08-.82.55-1.65,1.06-2.54,1.48-1.01.48.53-.17-.53.2-.44.15-.88.29-1.33.41s-.91.19-1.36.3c-.55.13.35-.06.33-.03-.06.08-.95.09-1.05.09-.95.05-1.88,0-2.83-.09.92.09.01-.02-.4-.11-.51-.11-1.02-.25-1.52-.41-.34-.11-1.44-.56-.52-.15-.41-.18-.81-.37-1.2-.58s-.77-.43-1.14-.67c-.18-.12-.36-.25-.54-.36-.7-.44.4.38,0,.02-.6-.54-1.21-1.05-1.76-1.65-.28-.3-.62-.62-.83-.97.63,1.04-.17-.29-.31-.52-.23-.36-.44-.72-.64-1.1-.07-.14-.67-1.36-.39-.75s-.17-.47-.23-.65c-.17-.5-.32-1.01-.44-1.53-.06-.26-.35-1-.25-1.25-.01.04.1,1.13.04.24-.01-.16-.03-.32-.04-.48-.06-.92-.03-1.83.04-2.75s-.05.16-.03.22c-.05-.17.11-.63.15-.82.1-.49.23-.98.38-1.46.07-.22.14-.43.21-.65.05-.15.59-1.22.14-.39.25-.46.46-.93.72-1.38.32-.55.67-1.08,1.06-1.59-.11.15-.55.63,0,.03.21-.23.42-.47.64-.69.39-.41.81-.78,1.23-1.15.15-.13.68-.47-.03.01.31-.21.61-.43.92-.63,3.36-2.19,2.6-6.93-1.07-8.22-4.53-1.6-9.05-3.2-13.58-4.8-7.27-2.57-14.53-5.13-21.8-7.7-1.67-.59-3.33-1.18-5-1.76l3.14,5.54c1.24-3.5,2.47-7,3.71-10.5,2.9-8.22,5.81-16.44,8.71-24.67,3.4-9.63,6.8-19.27,10.21-28.9,2.74-7.75,5.48-15.51,8.21-23.26l2.22-6.3c.15-.44.3-.87.46-1.31.13-.35.57-1.21.12-.36.38-.72.72-1.43,1.17-2.11.12-.19.27-.37.39-.56-.46.76-.26.31-.08.11.33-.38.66-.76,1.02-1.11.28-.27.57-.53.86-.79.58-.54-.01,0-.13.08.18-.13.36-.26.54-.39.73-.5,1.5-.91,2.29-1.31.37-.19.33-.37-.16.06.09-.08.35-.13.46-.17.42-.14.84-.28,1.26-.39.38-.1.76-.17,1.13-.25.83-.19-.1-.02-.21,0,.25-.08.57-.06.83-.08.85-.06,1.68-.01,2.53.04.41.03.52-.15-.18-.03.15-.03.56.1.68.13.46.1.91.21,1.35.35.27.08.54.18.81.27,1.33.46,2.66.94,3.98,1.41,6.76,2.39,13.52,4.77,20.28,7.16,9.47,3.35,18.95,6.69,28.42,10.04,8.9,3.14,17.81,6.29,26.71,9.43,4.94,1.74,9.88,3.49,14.82,5.23l.7.25-3.14-5.54c-1.73,4.91-3.47,9.82-5.2,14.73-2.76,7.82-5.53,15.65-8.29,23.47-.63,1.79-1.27,3.58-1.9,5.37l8.22-1.07c-2.95-5.65-8.59-9.93-14.91-10.98s-12.17.5-17.08,4.35-7.55,9.54-7.86,15.54,2.29,12.26,6.72,16.34c2.86,2.64,6.49,4.6,10.34,5.27,4.6.81,8.9.18,13.16-1.67l-6.61-5.08c-1.73,4.91-3.47,9.82-5.2,14.73-2.76,7.82-5.53,15.65-8.29,23.47-.63,1.79-1.27,3.58-1.9,5.37l5.54-3.14c-5.03-1.78-10.06-3.55-15.08-5.33-8.06-2.85-16.11-5.69-24.17-8.54-1.84-.65-3.68-1.3-5.52-1.95-3.2-1.13-6.55,2.4-5.54,5.54.28.88.48,1.75.66,2.65.05.33.05.28-.02-.15.03.28.05.56.06.85.02.43.02.85,0,1.28s-.04.86-.09,1.29c.1-.9-.08.34-.12.53-.22,1.03-.56,2.02-.95,2.99-.89,2.19.97,5.04,3.14,5.54,2.62.6,4.58-.8,5.54-3.14Z"/>
    </g>
  </g>
</svg>