<svg xmlns="http://www.w3.org/2000/svg" xmlns:xlink="http://www.w3.org/1999/xlink" width="500" zoomAndPan="magnify" viewBox="0 0 375 374.999991" height="500" preserveAspectRatio="xMidYMid meet" version="1.0"><defs><clipPath id="c2b88c1194"><path d="M 37.5 38 L 337.5 38 L 337.5 337.5 L 37.5 337.5 Z M 37.5 38 " clip-rule="nonzero"/></clipPath><clipPath id="c90c293d68"><path d="M 93 37.5 L 114 37.5 L 114 80 L 93 80 Z M 93 37.5 " clip-rule="nonzero"/></clipPath></defs><g clip-path="url(#c2b88c1194)"><path fill="#fa5757" d="M 333.230469 116.1875 L 313.878906 113.421875 C 310.824219 112.988281 309.957031 110.484375 309.761719 109.734375 C 309.570312 108.976562 309.125 106.367188 311.59375 104.515625 L 327.234375 92.789062 C 328.296875 91.996094 328.992188 90.820312 329.179688 89.515625 C 329.367188 88.207031 329.027344 86.882812 328.234375 85.828125 L 310.320312 61.949219 C 309.53125 60.886719 308.351562 60.191406 307.046875 60.003906 C 305.714844 59.8125 304.414062 60.15625 303.359375 60.949219 L 287.722656 72.675781 C 285.25 74.519531 282.867188 73.375 282.195312 72.972656 C 281.523438 72.574219 279.375 71.042969 279.8125 67.992188 L 282.578125 48.640625 C 282.96875 45.917969 281.078125 43.394531 278.355469 43.007812 L 248.796875 38.792969 C 247.496094 38.605469 246.167969 38.949219 245.113281 39.738281 C 244.050781 40.53125 243.355469 41.707031 243.167969 43.011719 L 240.402344 62.367188 C 239.96875 65.421875 237.464844 66.285156 236.714844 66.480469 C 235.953125 66.679688 233.351562 67.117188 231.496094 64.648438 L 219.769531 49.007812 C 218.976562 47.949219 217.796875 47.25 216.496094 47.0625 C 215.203125 46.875 213.863281 47.214844 212.808594 48.007812 L 197.851562 59.226562 C 191.003906 58.523438 184.15625 58.5 177.503906 59.230469 C 133.386719 64.101562 98.332031 99.753906 94.15625 143.988281 C 94.023438 145.390625 93.976562 146.789062 93.902344 148.191406 L 92.40625 148.191406 C 90.050781 148.191406 88.015625 149.839844 87.535156 152.148438 L 84.101562 168.496094 L 70.351562 159.023438 C 68.378906 157.652344 65.703125 157.902344 64.011719 159.597656 L 49.085938 174.523438 C 47.390625 176.222656 47.140625 178.886719 48.511719 180.863281 L 57.984375 194.609375 L 41.628906 198.050781 C 39.324219 198.539062 37.679688 200.570312 37.679688 202.921875 L 37.679688 222.824219 C 37.679688 225.175781 39.324219 227.207031 41.628906 227.695312 L 57.984375 231.132812 L 48.511719 244.878906 C 47.148438 246.851562 47.390625 249.523438 49.085938 251.214844 L 64.011719 266.140625 C 65.707031 267.839844 68.378906 268.09375 70.351562 266.71875 L 84.101562 257.242188 L 87.535156 273.59375 C 88.015625 275.902344 90.058594 277.550781 92.40625 277.550781 L 112.304688 277.550781 C 114.660156 277.550781 116.6875 275.902344 117.175781 273.597656 L 120.613281 257.246094 L 134.359375 266.71875 C 136.332031 268.085938 139.003906 267.839844 140.699219 266.140625 L 148.445312 258.394531 L 148.445312 272.574219 C 148.445312 279.90625 152.476562 286.257812 158.394531 289.707031 L 158.394531 317.351562 C 158.394531 328.324219 167.320312 337.25 178.296875 337.25 L 198.195312 337.25 C 209.171875 337.25 218.097656 328.324219 218.097656 317.351562 L 218.097656 289.707031 C 224.015625 286.257812 228.046875 279.90625 228.046875 272.574219 L 228.046875 252.882812 C 228.046875 244.832031 232.351562 237.234375 239.554688 232.574219 C 243.667969 229.90625 247.609375 226.894531 251.265625 223.621094 L 244.628906 216.207031 C 241.355469 219.140625 237.828125 221.839844 234.148438 224.222656 C 224.097656 230.730469 218.097656 241.445312 218.097656 252.882812 L 218.097656 272.574219 C 218.097656 278.0625 213.632812 282.523438 208.148438 282.523438 L 168.347656 282.523438 C 162.859375 282.523438 158.394531 278.0625 158.394531 272.574219 L 158.394531 252.46875 C 158.394531 241.230469 152.496094 230.738281 142.613281 224.390625 C 115.828125 207.191406 101.050781 176.742188 104.058594 144.921875 C 107.792969 105.367188 139.140625 73.484375 178.59375 69.125 C 181.425781 68.8125 184.292969 68.679688 187.175781 68.660156 C 187.125 68.847656 187.011719 69.007812 186.988281 69.203125 C 186.804688 70.511719 187.140625 71.832031 187.933594 72.886719 L 199.660156 88.523438 C 201.511719 90.996094 200.359375 93.378906 199.960938 94.046875 C 199.558594 94.71875 198.003906 96.847656 194.976562 96.433594 L 175.625 93.667969 C 172.902344 93.296875 170.378906 95.171875 169.992188 97.894531 L 165.769531 127.441406 C 165.585938 128.75 165.921875 130.070312 166.714844 131.125 C 167.503906 132.1875 168.683594 132.882812 169.988281 133.070312 L 189.339844 135.839844 C 192.394531 136.269531 193.265625 138.773438 193.460938 139.523438 C 193.648438 140.277344 194.09375 142.894531 191.625 144.742188 L 175.988281 156.46875 C 173.789062 158.117188 173.347656 161.234375 174.992188 163.429688 L 192.902344 187.3125 C 194.542969 189.511719 197.667969 189.949219 199.863281 188.304688 L 215.511719 176.578125 C 217.972656 174.730469 220.351562 175.878906 221.023438 176.277344 C 221.695312 176.675781 223.847656 178.210938 223.410156 181.261719 L 220.644531 200.613281 C 220.257812 203.335938 222.148438 205.859375 224.867188 206.246094 L 254.414062 210.46875 C 254.648438 210.503906 254.886719 210.519531 255.121094 210.519531 C 256.191406 210.519531 257.242188 210.175781 258.105469 209.523438 C 259.167969 208.734375 259.863281 207.554688 260.050781 206.25 L 262.820312 186.898438 C 263.25 183.84375 265.753906 182.976562 266.503906 182.785156 C 267.261719 182.585938 269.863281 182.148438 271.722656 184.613281 L 283.449219 200.25 C 285.09375 202.449219 288.210938 202.886719 290.410156 201.246094 L 314.289062 183.335938 C 316.488281 181.6875 316.9375 178.570312 315.285156 176.375 L 303.558594 160.734375 C 301.714844 158.265625 302.863281 155.882812 303.261719 155.214844 C 303.652344 154.539062 305.175781 152.378906 308.242188 152.828125 L 327.59375 155.59375 C 330.339844 155.988281 332.839844 154.09375 333.226562 151.371094 L 337.449219 121.824219 C 337.632812 120.515625 337.296875 119.191406 336.503906 118.136719 C 335.714844 117.070312 334.535156 116.375 333.230469 116.1875 Z M 102.542969 192.992188 C 107.09375 202.796875 113.3125 211.796875 121.011719 219.589844 C 118.210938 227.351562 110.769531 232.773438 102.355469 232.773438 C 91.378906 232.773438 82.457031 223.847656 82.457031 212.875 C 82.457031 201.898438 91.378906 192.972656 102.355469 192.972656 C 102.421875 192.972656 102.480469 192.992188 102.542969 192.992188 Z M 198.195312 327.300781 L 178.296875 327.300781 C 172.808594 327.300781 168.347656 322.839844 168.347656 317.351562 L 168.347656 312.375 L 208.148438 312.375 L 208.148438 317.351562 C 208.148438 322.839844 203.683594 327.300781 198.195312 327.300781 Z M 208.148438 292.476562 L 208.148438 302.425781 L 168.347656 302.425781 L 168.347656 292.476562 Z M 147.265625 245.503906 L 136.59375 256.175781 L 126.261719 249.050781 C 123.515625 247.152344 120.023438 246.757812 116.917969 248.003906 C 113.820312 249.242188 111.566406 251.933594 110.878906 255.191406 L 108.269531 267.597656 L 96.445312 267.597656 L 93.84375 255.195312 C 93.152344 251.933594 90.894531 249.246094 87.796875 248.007812 C 84.699219 246.773438 81.210938 247.15625 78.457031 249.058594 L 68.121094 256.179688 L 59.058594 247.117188 L 66.175781 236.789062 C 68.078125 234.042969 68.46875 230.550781 67.234375 227.445312 C 65.996094 224.347656 63.304688 222.085938 60.042969 221.402344 L 47.640625 218.792969 L 47.640625 206.96875 L 60.039062 204.359375 C 63.304688 203.675781 65.996094 201.414062 67.234375 198.316406 C 68.46875 195.210938 68.078125 191.71875 66.179688 188.976562 L 59.058594 178.644531 L 68.121094 169.578125 L 78.460938 176.703125 C 81.207031 178.597656 84.699219 178.984375 87.792969 177.753906 C 90.894531 176.519531 93.152344 173.828125 93.84375 170.558594 L 94.714844 166.414062 C 95.523438 172.179688 96.828125 177.828125 98.660156 183.285156 C 83.9375 185.105469 72.503906 197.667969 72.503906 212.875 C 72.503906 229.335938 85.894531 242.722656 102.355469 242.722656 C 113.621094 242.722656 123.6875 236.214844 128.734375 226.554688 C 131.445312 228.753906 134.257812 230.851562 137.242188 232.769531 C 142.113281 235.898438 145.578125 240.421875 147.265625 245.503906 Z M 324.082031 145.03125 L 309.660156 142.972656 C 303.515625 142.09375 297.84375 144.851562 294.707031 150.140625 C 291.570312 155.433594 291.914062 161.785156 295.609375 166.699219 L 304.351562 178.359375 L 288.433594 190.296875 L 279.6875 178.644531 C 275.996094 173.71875 270.007812 171.59375 264.042969 173.140625 C 258.085938 174.667969 253.839844 179.402344 252.96875 185.484375 L 250.90625 199.90625 L 231.210938 197.097656 L 233.269531 182.675781 C 234.140625 176.578125 231.390625 170.851562 226.097656 167.71875 C 220.808594 164.585938 214.460938 164.921875 209.542969 168.625 L 197.882812 177.367188 L 185.949219 161.449219 L 197.597656 152.703125 C 202.523438 149.011719 204.632812 143.015625 203.101562 137.058594 C 201.574219 131.097656 196.84375 126.851562 190.757812 125.984375 L 176.335938 123.921875 L 179.148438 104.226562 L 193.570312 106.285156 C 199.683594 107.148438 205.390625 104.40625 208.523438 99.117188 C 211.660156 93.824219 211.316406 87.476562 207.621094 82.554688 L 198.878906 70.898438 L 214.792969 58.957031 L 223.539062 70.613281 C 227.230469 75.535156 233.214844 77.648438 239.1875 76.117188 C 245.140625 74.589844 249.390625 69.859375 250.261719 63.773438 L 252.320312 49.351562 L 272.015625 52.160156 L 269.957031 66.585938 C 269.085938 72.675781 271.839844 78.402344 277.125 81.535156 C 282.414062 84.675781 288.769531 84.324219 293.6875 80.632812 L 305.347656 71.894531 L 317.285156 87.808594 L 305.628906 96.554688 C 300.707031 100.246094 298.597656 106.234375 300.125 112.203125 C 301.652344 118.15625 306.386719 122.40625 312.46875 123.277344 L 326.894531 125.335938 Z M 324.082031 145.03125 " fill-opacity="1" fill-rule="nonzero"/></g><path fill="#fa5757" d="M 251.609375 84.832031 C 229.664062 84.832031 211.808594 102.6875 211.808594 124.632812 C 211.808594 146.578125 229.664062 164.433594 251.609375 164.433594 C 273.554688 164.433594 291.410156 146.578125 291.410156 124.632812 C 291.410156 102.6875 273.554688 84.832031 251.609375 84.832031 Z M 251.609375 154.484375 C 235.148438 154.484375 221.757812 141.097656 221.757812 124.632812 C 221.757812 108.171875 235.148438 94.785156 251.609375 94.785156 C 268.070312 94.785156 281.460938 108.171875 281.460938 124.632812 C 281.460938 141.097656 268.070312 154.484375 251.609375 154.484375 Z M 251.609375 154.484375 " fill-opacity="1" fill-rule="nonzero"/><path fill="#fa5757" d="M 183.269531 257.648438 L 193.222656 257.648438 L 193.222656 272.574219 L 183.269531 272.574219 Z M 183.269531 257.648438 " fill-opacity="1" fill-rule="nonzero"/><path fill="#fa5757" d="M 166.484375 208.789062 C 143.433594 199.753906 128.542969 177.929688 128.542969 153.171875 C 128.542969 132.554688 138.96875 113.675781 156.425781 102.652344 L 151.113281 94.242188 C 130.75 107.09375 118.59375 129.121094 118.59375 153.171875 C 118.59375 182.050781 135.96875 207.519531 162.851562 218.046875 C 175.257812 222.914062 183.269531 234.542969 183.269531 247.699219 L 193.222656 247.699219 C 193.222656 230.421875 182.730469 215.148438 166.484375 208.789062 Z M 166.484375 208.789062 " fill-opacity="1" fill-rule="nonzero"/><path fill="#fa5757" d="M 282.773438 222.824219 L 317.597656 222.824219 L 317.597656 232.773438 L 282.773438 232.773438 Z M 282.773438 222.824219 " fill-opacity="1" fill-rule="nonzero"/><path fill="#fa5757" d="M 274.613281 256.492188 L 280.984375 248.847656 L 310.835938 273.71875 L 304.46875 281.363281 Z M 274.613281 256.492188 " fill-opacity="1" fill-rule="nonzero"/><path fill="#fa5757" d="M 252.921875 262.625 L 262.875 262.625 L 262.875 297.449219 L 252.921875 297.449219 Z M 252.921875 262.625 " fill-opacity="1" fill-rule="nonzero"/><path fill="#fa5757" d="M 42.757812 123.46875 L 82.558594 113.519531 L 84.96875 123.167969 L 45.171875 133.117188 Z M 42.757812 123.46875 " fill-opacity="1" fill-rule="nonzero"/><path fill="#fa5757" d="M 51.027344 72.644531 L 56.808594 64.550781 L 91.632812 89.425781 L 85.851562 97.519531 Z M 51.027344 72.644531 " fill-opacity="1" fill-rule="nonzero"/><g clip-path="url(#c90c293d68)"><path fill="#fa5757" d="M 93.652344 39.96875 L 103.289062 37.503906 L 113.464844 77.304688 L 103.828125 79.769531 Z M 93.652344 39.96875 " fill-opacity="1" fill-rule="nonzero"/></g></svg>